<mxfile host="app.diagrams.net" modified="2024-02-05T12:23:39.886Z" agent="Mozilla/5.0 (X11; Linux x86_64) AppleWebKit/537.36 (KHTML, like Gecko) Chrome/119.0.0.0 Safari/537.36" etag="tMmMl9vzOfojlJ7BBF9d" version="23.1.1" type="github">
  <diagram id="C5RBs43oDa-KdzZeNtuy" name="Page-1">
    <mxGraphModel dx="1430" dy="1982" grid="1" gridSize="10" guides="1" tooltips="1" connect="1" arrows="1" fold="1" page="1" pageScale="1" pageWidth="827" pageHeight="1169" background="#ffffff" math="0" shadow="0">
      <root>
        <mxCell id="WIyWlLk6GJQsqaUBKTNV-0" />
        <mxCell id="WIyWlLk6GJQsqaUBKTNV-1" parent="WIyWlLk6GJQsqaUBKTNV-0" />
        <mxCell id="zAUp7dM-AJPnExlxfuv2-283" value="" style="rounded=1;whiteSpace=wrap;html=1;absoluteArcSize=1;arcSize=14;strokeWidth=2;fillColor=#ffcccc;strokeColor=#36393d;" vertex="1" parent="WIyWlLk6GJQsqaUBKTNV-1">
          <mxGeometry x="598" y="870" width="210" height="230" as="geometry" />
        </mxCell>
        <mxCell id="zAUp7dM-AJPnExlxfuv2-63" value="" style="whiteSpace=wrap;html=1;aspect=fixed;" vertex="1" parent="WIyWlLk6GJQsqaUBKTNV-1">
          <mxGeometry x="30" y="-1150" width="740" height="740" as="geometry" />
        </mxCell>
        <mxCell id="zAUp7dM-AJPnExlxfuv2-24" value="&lt;span style=&quot;font-size: 8px;&quot;&gt;&lt;b&gt;list_instructions(entry_fn)&lt;/b&gt;&lt;br&gt;Print the instructions of the function&lt;/span&gt;" style="rounded=1;whiteSpace=wrap;html=1;fillColor=#eeeeee;strokeColor=#36393d;" vertex="1" parent="WIyWlLk6GJQsqaUBKTNV-1">
          <mxGeometry x="80" y="-1030" width="120" height="60" as="geometry" />
        </mxCell>
        <mxCell id="zAUp7dM-AJPnExlxfuv2-38" value="&lt;span style=&quot;font-size: 8px;&quot;&gt;&lt;b&gt;[address] find_main(entry_name)&lt;/b&gt;&lt;br&gt;Search lib find_start_main on entry_fn body; if not find, addr is None&lt;br&gt;&lt;/span&gt;" style="rounded=1;whiteSpace=wrap;html=1;fillColor=#eeeeee;strokeColor=#36393d;" vertex="1" parent="WIyWlLk6GJQsqaUBKTNV-1">
          <mxGeometry x="227" y="-1030" width="140" height="60" as="geometry" />
        </mxCell>
        <mxCell id="zAUp7dM-AJPnExlxfuv2-57" value="&lt;span style=&quot;font-size: 8px;&quot;&gt;&lt;b&gt;[void] list_inst_branch(instructionDB)&lt;br&gt;&lt;/b&gt;List instruction until branch detection&lt;br&gt;&lt;/span&gt;" style="rounded=1;whiteSpace=wrap;html=1;fillColor=#eeeeee;strokeColor=#36393d;" vertex="1" parent="WIyWlLk6GJQsqaUBKTNV-1">
          <mxGeometry x="390" y="-1030" width="170" height="60" as="geometry" />
        </mxCell>
        <mxCell id="zAUp7dM-AJPnExlxfuv2-58" value="&lt;span style=&quot;font-size: 8px;&quot;&gt;&lt;b&gt;[InstructionDB] got_to_address(ref_addr)&lt;/b&gt;&lt;br&gt;Go to instruction at entry_fn&lt;br&gt;&lt;/span&gt;" style="rounded=1;whiteSpace=wrap;html=1;fillColor=#eeeeee;strokeColor=#36393d;" vertex="1" parent="WIyWlLk6GJQsqaUBKTNV-1">
          <mxGeometry x="80" y="-960" width="170" height="60" as="geometry" />
        </mxCell>
        <mxCell id="zAUp7dM-AJPnExlxfuv2-65" value="&lt;h1&gt;Functions&lt;/h1&gt;&lt;p&gt;Display all functions card process: [type of return] name_of_function(parameters&lt;span style=&quot;background-color: initial;&quot;&gt;)&lt;/span&gt;&lt;/p&gt;" style="text;html=1;strokeColor=none;fillColor=none;spacing=5;spacingTop=-20;whiteSpace=wrap;overflow=hidden;rounded=0;" vertex="1" parent="WIyWlLk6GJQsqaUBKTNV-1">
          <mxGeometry x="50" y="-1140" width="700" height="80" as="geometry" />
        </mxCell>
        <mxCell id="zAUp7dM-AJPnExlxfuv2-66" style="edgeStyle=orthogonalEdgeStyle;rounded=0;orthogonalLoop=1;jettySize=auto;html=1;entryX=0.5;entryY=0;entryDx=0;entryDy=0;" edge="1" parent="WIyWlLk6GJQsqaUBKTNV-1" source="zAUp7dM-AJPnExlxfuv2-67" target="zAUp7dM-AJPnExlxfuv2-69">
          <mxGeometry relative="1" as="geometry" />
        </mxCell>
        <mxCell id="zAUp7dM-AJPnExlxfuv2-67" value="Start" style="rounded=1;whiteSpace=wrap;html=1;fillColor=#d5e8d4;strokeColor=#82b366;shadow=0;gradientColor=none;rotation=0;" vertex="1" parent="WIyWlLk6GJQsqaUBKTNV-1">
          <mxGeometry x="1988" y="-1134" width="110" height="40" as="geometry" />
        </mxCell>
        <mxCell id="zAUp7dM-AJPnExlxfuv2-79" style="edgeStyle=orthogonalEdgeStyle;rounded=0;orthogonalLoop=1;jettySize=auto;html=1;" edge="1" parent="WIyWlLk6GJQsqaUBKTNV-1" source="zAUp7dM-AJPnExlxfuv2-69" target="zAUp7dM-AJPnExlxfuv2-71">
          <mxGeometry relative="1" as="geometry" />
        </mxCell>
        <mxCell id="zAUp7dM-AJPnExlxfuv2-69" value="&lt;p&gt;&lt;span style=&quot;font-size: 8px;&quot;&gt;branch_flag = False&lt;/span&gt;&lt;/p&gt;" style="shape=parallelogram;html=1;strokeWidth=1;perimeter=parallelogramPerimeter;whiteSpace=wrap;rounded=1;arcSize=12;size=0.23;" vertex="1" parent="WIyWlLk6GJQsqaUBKTNV-1">
          <mxGeometry x="1990.5" y="-1064" width="105" height="50" as="geometry" />
        </mxCell>
        <mxCell id="zAUp7dM-AJPnExlxfuv2-70" value="&lt;b&gt;list_inst_branch(InstructionDB)&lt;/b&gt;" style="strokeWidth=2;html=1;shape=mxgraph.flowchart.annotation_1;align=left;pointerEvents=1;" vertex="1" parent="WIyWlLk6GJQsqaUBKTNV-1">
          <mxGeometry x="1678" y="-1134" width="50" height="100" as="geometry" />
        </mxCell>
        <mxCell id="zAUp7dM-AJPnExlxfuv2-73" value="" style="edgeStyle=orthogonalEdgeStyle;rounded=0;orthogonalLoop=1;jettySize=auto;html=1;" edge="1" parent="WIyWlLk6GJQsqaUBKTNV-1" source="zAUp7dM-AJPnExlxfuv2-71" target="zAUp7dM-AJPnExlxfuv2-72">
          <mxGeometry relative="1" as="geometry" />
        </mxCell>
        <mxCell id="zAUp7dM-AJPnExlxfuv2-103" value="yes" style="edgeLabel;html=1;align=center;verticalAlign=middle;resizable=0;points=[];" vertex="1" connectable="0" parent="zAUp7dM-AJPnExlxfuv2-73">
          <mxGeometry x="0.36" y="-1" relative="1" as="geometry">
            <mxPoint as="offset" />
          </mxGeometry>
        </mxCell>
        <mxCell id="zAUp7dM-AJPnExlxfuv2-106" style="edgeStyle=orthogonalEdgeStyle;rounded=0;orthogonalLoop=1;jettySize=auto;html=1;exitX=1;exitY=0.5;exitDx=0;exitDy=0;entryX=0;entryY=0.5;entryDx=0;entryDy=0;" edge="1" parent="WIyWlLk6GJQsqaUBKTNV-1" source="zAUp7dM-AJPnExlxfuv2-71" target="zAUp7dM-AJPnExlxfuv2-104">
          <mxGeometry relative="1" as="geometry" />
        </mxCell>
        <mxCell id="zAUp7dM-AJPnExlxfuv2-107" value="no" style="edgeLabel;html=1;align=center;verticalAlign=middle;resizable=0;points=[];" vertex="1" connectable="0" parent="zAUp7dM-AJPnExlxfuv2-106">
          <mxGeometry x="-0.265" y="-1" relative="1" as="geometry">
            <mxPoint as="offset" />
          </mxGeometry>
        </mxCell>
        <mxCell id="zAUp7dM-AJPnExlxfuv2-71" value="&lt;font style=&quot;font-size: 8px;&quot;&gt;WHILE&lt;br&gt;Inst is not None&lt;br&gt;&lt;/font&gt;" style="rhombus;whiteSpace=wrap;html=1;" vertex="1" parent="WIyWlLk6GJQsqaUBKTNV-1">
          <mxGeometry x="1980.5" y="-984" width="125" height="80" as="geometry" />
        </mxCell>
        <mxCell id="zAUp7dM-AJPnExlxfuv2-76" style="edgeStyle=orthogonalEdgeStyle;rounded=0;orthogonalLoop=1;jettySize=auto;html=1;" edge="1" parent="WIyWlLk6GJQsqaUBKTNV-1" source="zAUp7dM-AJPnExlxfuv2-72" target="zAUp7dM-AJPnExlxfuv2-75">
          <mxGeometry relative="1" as="geometry" />
        </mxCell>
        <mxCell id="zAUp7dM-AJPnExlxfuv2-77" value="yes" style="edgeLabel;html=1;align=center;verticalAlign=middle;resizable=0;points=[];" vertex="1" connectable="0" parent="zAUp7dM-AJPnExlxfuv2-76">
          <mxGeometry x="-0.2203" relative="1" as="geometry">
            <mxPoint as="offset" />
          </mxGeometry>
        </mxCell>
        <mxCell id="zAUp7dM-AJPnExlxfuv2-82" style="edgeStyle=orthogonalEdgeStyle;rounded=0;orthogonalLoop=1;jettySize=auto;html=1;entryX=0.5;entryY=0;entryDx=0;entryDy=0;" edge="1" parent="WIyWlLk6GJQsqaUBKTNV-1" source="zAUp7dM-AJPnExlxfuv2-72" target="zAUp7dM-AJPnExlxfuv2-80">
          <mxGeometry relative="1" as="geometry" />
        </mxCell>
        <mxCell id="zAUp7dM-AJPnExlxfuv2-83" value="no" style="edgeLabel;html=1;align=center;verticalAlign=middle;resizable=0;points=[];" vertex="1" connectable="0" parent="zAUp7dM-AJPnExlxfuv2-82">
          <mxGeometry x="0.2743" y="-1" relative="1" as="geometry">
            <mxPoint as="offset" />
          </mxGeometry>
        </mxCell>
        <mxCell id="zAUp7dM-AJPnExlxfuv2-72" value="&lt;font style=&quot;font-size: 8px;&quot;&gt;IF &lt;br&gt;inst is not a instructionDB&lt;br&gt;&lt;/font&gt;" style="rhombus;whiteSpace=wrap;html=1;" vertex="1" parent="WIyWlLk6GJQsqaUBKTNV-1">
          <mxGeometry x="1970" y="-864" width="147.5" height="80" as="geometry" />
        </mxCell>
        <mxCell id="zAUp7dM-AJPnExlxfuv2-105" style="edgeStyle=orthogonalEdgeStyle;rounded=0;orthogonalLoop=1;jettySize=auto;html=1;entryX=0;entryY=0.5;entryDx=0;entryDy=0;" edge="1" parent="WIyWlLk6GJQsqaUBKTNV-1" source="zAUp7dM-AJPnExlxfuv2-75" target="zAUp7dM-AJPnExlxfuv2-71">
          <mxGeometry relative="1" as="geometry">
            <Array as="points">
              <mxPoint x="1738" y="-829" />
              <mxPoint x="1738" y="-944" />
            </Array>
          </mxGeometry>
        </mxCell>
        <mxCell id="zAUp7dM-AJPnExlxfuv2-75" value="&lt;p&gt;&lt;span style=&quot;font-size: 8px;&quot;&gt;inst = inst.getNext()&lt;/span&gt;&lt;/p&gt;" style="shape=parallelogram;html=1;strokeWidth=1;perimeter=parallelogramPerimeter;whiteSpace=wrap;rounded=1;arcSize=12;size=0.23;" vertex="1" parent="WIyWlLk6GJQsqaUBKTNV-1">
          <mxGeometry x="1808" y="-854" width="110" height="50" as="geometry" />
        </mxCell>
        <mxCell id="zAUp7dM-AJPnExlxfuv2-85" style="edgeStyle=orthogonalEdgeStyle;rounded=0;orthogonalLoop=1;jettySize=auto;html=1;" edge="1" parent="WIyWlLk6GJQsqaUBKTNV-1" source="zAUp7dM-AJPnExlxfuv2-80" target="zAUp7dM-AJPnExlxfuv2-84">
          <mxGeometry relative="1" as="geometry" />
        </mxCell>
        <mxCell id="zAUp7dM-AJPnExlxfuv2-80" value="&lt;span style=&quot;font-size: 8px;&quot;&gt;Add logging.info&lt;br&gt;(inst addr; inst.getBytes; inst.ToString)&lt;br&gt;&lt;/span&gt;" style="rounded=1;whiteSpace=wrap;html=1;" vertex="1" parent="WIyWlLk6GJQsqaUBKTNV-1">
          <mxGeometry x="1966.75" y="-764" width="152.5" height="60" as="geometry" />
        </mxCell>
        <mxCell id="zAUp7dM-AJPnExlxfuv2-87" style="edgeStyle=orthogonalEdgeStyle;rounded=0;orthogonalLoop=1;jettySize=auto;html=1;" edge="1" parent="WIyWlLk6GJQsqaUBKTNV-1" source="zAUp7dM-AJPnExlxfuv2-84" target="zAUp7dM-AJPnExlxfuv2-86">
          <mxGeometry relative="1" as="geometry" />
        </mxCell>
        <mxCell id="zAUp7dM-AJPnExlxfuv2-84" value="&lt;span style=&quot;font-size: 8px;&quot;&gt;&lt;b&gt;[List] save_inst_data(inst)&lt;/b&gt;&lt;br&gt;Format inst data to be saved on csv&lt;br&gt;&lt;/span&gt;" style="rounded=1;whiteSpace=wrap;html=1;fillColor=#eeeeee;strokeColor=#36393d;" vertex="1" parent="WIyWlLk6GJQsqaUBKTNV-1">
          <mxGeometry x="1975" y="-679" width="136" height="60" as="geometry" />
        </mxCell>
        <mxCell id="zAUp7dM-AJPnExlxfuv2-99" style="edgeStyle=orthogonalEdgeStyle;rounded=0;orthogonalLoop=1;jettySize=auto;html=1;" edge="1" parent="WIyWlLk6GJQsqaUBKTNV-1" source="zAUp7dM-AJPnExlxfuv2-86" target="zAUp7dM-AJPnExlxfuv2-97">
          <mxGeometry relative="1" as="geometry" />
        </mxCell>
        <mxCell id="zAUp7dM-AJPnExlxfuv2-86" value="&lt;span style=&quot;font-size: 8px;&quot;&gt;&lt;b&gt;[void] write_csv_file(filename, data)&lt;/b&gt;&lt;br&gt;Write data list in a line on csv filename&lt;br&gt;&lt;/span&gt;" style="rounded=1;whiteSpace=wrap;html=1;fillColor=#eeeeee;strokeColor=#36393d;" vertex="1" parent="WIyWlLk6GJQsqaUBKTNV-1">
          <mxGeometry x="1966.75" y="-594" width="153" height="60" as="geometry" />
        </mxCell>
        <mxCell id="zAUp7dM-AJPnExlxfuv2-90" value="&lt;span style=&quot;font-size: 8px;&quot;&gt;&lt;b&gt;[List] save_inst_data(inst)&lt;/b&gt;&lt;br&gt;Format inst data to be saved on csv&lt;br&gt;&lt;/span&gt;" style="rounded=1;whiteSpace=wrap;html=1;fillColor=#eeeeee;strokeColor=#36393d;" vertex="1" parent="WIyWlLk6GJQsqaUBKTNV-1">
          <mxGeometry x="72" y="-850" width="136" height="60" as="geometry" />
        </mxCell>
        <mxCell id="zAUp7dM-AJPnExlxfuv2-91" value="&lt;span style=&quot;font-size: 8px;&quot;&gt;&lt;b&gt;[void] write_csv_file(filename, data)&lt;/b&gt;&lt;br&gt;Write data list in a line on csv filename&lt;br&gt;&lt;/span&gt;" style="rounded=1;whiteSpace=wrap;html=1;fillColor=#eeeeee;strokeColor=#36393d;" vertex="1" parent="WIyWlLk6GJQsqaUBKTNV-1">
          <mxGeometry x="227" y="-850" width="153" height="60" as="geometry" />
        </mxCell>
        <mxCell id="zAUp7dM-AJPnExlxfuv2-94" value="" style="endArrow=none;dashed=1;html=1;dashPattern=1 3;strokeWidth=2;rounded=0;exitX=0;exitY=0.5;exitDx=0;exitDy=0;entryX=1;entryY=0.5;entryDx=0;entryDy=0;" edge="1" parent="WIyWlLk6GJQsqaUBKTNV-1">
          <mxGeometry width="50" height="50" relative="1" as="geometry">
            <mxPoint x="30" y="-880" as="sourcePoint" />
            <mxPoint x="770" y="-880" as="targetPoint" />
            <Array as="points" />
          </mxGeometry>
        </mxCell>
        <mxCell id="zAUp7dM-AJPnExlxfuv2-95" value="" style="endArrow=none;dashed=1;html=1;dashPattern=1 3;strokeWidth=2;rounded=0;exitX=0;exitY=0.5;exitDx=0;exitDy=0;entryX=1;entryY=0.5;entryDx=0;entryDy=0;" edge="1" parent="WIyWlLk6GJQsqaUBKTNV-1">
          <mxGeometry width="50" height="50" relative="1" as="geometry">
            <mxPoint x="30" y="-760" as="sourcePoint" />
            <mxPoint x="770" y="-760" as="targetPoint" />
            <Array as="points">
              <mxPoint x="430" y="-760" />
            </Array>
          </mxGeometry>
        </mxCell>
        <mxCell id="zAUp7dM-AJPnExlxfuv2-96" value="" style="endArrow=none;dashed=1;html=1;dashPattern=1 3;strokeWidth=2;rounded=0;exitX=0;exitY=0.5;exitDx=0;exitDy=0;entryX=1;entryY=0.5;entryDx=0;entryDy=0;" edge="1" parent="WIyWlLk6GJQsqaUBKTNV-1">
          <mxGeometry width="50" height="50" relative="1" as="geometry">
            <mxPoint x="30" y="-1050" as="sourcePoint" />
            <mxPoint x="770" y="-1050" as="targetPoint" />
            <Array as="points" />
          </mxGeometry>
        </mxCell>
        <mxCell id="zAUp7dM-AJPnExlxfuv2-102" style="edgeStyle=orthogonalEdgeStyle;rounded=0;orthogonalLoop=1;jettySize=auto;html=1;entryX=0.5;entryY=0;entryDx=0;entryDy=0;" edge="1" parent="WIyWlLk6GJQsqaUBKTNV-1" source="zAUp7dM-AJPnExlxfuv2-97" target="zAUp7dM-AJPnExlxfuv2-98">
          <mxGeometry relative="1" as="geometry" />
        </mxCell>
        <mxCell id="zAUp7dM-AJPnExlxfuv2-97" value="&lt;p&gt;&lt;span style=&quot;font-size: 8px;&quot;&gt;inst_flow_type&lt;/span&gt;&lt;/p&gt;" style="shape=parallelogram;html=1;strokeWidth=1;perimeter=parallelogramPerimeter;whiteSpace=wrap;rounded=1;arcSize=12;size=0.23;" vertex="1" parent="WIyWlLk6GJQsqaUBKTNV-1">
          <mxGeometry x="2003.25" y="-514" width="80" height="50" as="geometry" />
        </mxCell>
        <mxCell id="zAUp7dM-AJPnExlxfuv2-109" style="edgeStyle=orthogonalEdgeStyle;rounded=0;orthogonalLoop=1;jettySize=auto;html=1;exitX=1;exitY=0.5;exitDx=0;exitDy=0;" edge="1" parent="WIyWlLk6GJQsqaUBKTNV-1" source="zAUp7dM-AJPnExlxfuv2-98" target="zAUp7dM-AJPnExlxfuv2-108">
          <mxGeometry relative="1" as="geometry" />
        </mxCell>
        <mxCell id="zAUp7dM-AJPnExlxfuv2-110" value="yes" style="edgeLabel;html=1;align=center;verticalAlign=middle;resizable=0;points=[];" vertex="1" connectable="0" parent="zAUp7dM-AJPnExlxfuv2-109">
          <mxGeometry x="-0.3422" y="-1" relative="1" as="geometry">
            <mxPoint as="offset" />
          </mxGeometry>
        </mxCell>
        <mxCell id="zAUp7dM-AJPnExlxfuv2-122" style="edgeStyle=orthogonalEdgeStyle;rounded=0;orthogonalLoop=1;jettySize=auto;html=1;exitX=0.5;exitY=1;exitDx=0;exitDy=0;" edge="1" parent="WIyWlLk6GJQsqaUBKTNV-1" source="zAUp7dM-AJPnExlxfuv2-98">
          <mxGeometry relative="1" as="geometry">
            <mxPoint x="2041.5142857142855" y="-304" as="targetPoint" />
          </mxGeometry>
        </mxCell>
        <mxCell id="zAUp7dM-AJPnExlxfuv2-123" value="no" style="edgeLabel;html=1;align=center;verticalAlign=middle;resizable=0;points=[];" vertex="1" connectable="0" parent="zAUp7dM-AJPnExlxfuv2-122">
          <mxGeometry x="-0.2429" relative="1" as="geometry">
            <mxPoint as="offset" />
          </mxGeometry>
        </mxCell>
        <mxCell id="zAUp7dM-AJPnExlxfuv2-98" value="&lt;font style=&quot;font-size: 8px;&quot;&gt;IF&lt;br&gt;inst_flow _type is: Jump, Call or Terminal&lt;br&gt;&lt;/font&gt;" style="rhombus;whiteSpace=wrap;html=1;" vertex="1" parent="WIyWlLk6GJQsqaUBKTNV-1">
          <mxGeometry x="1973.5" y="-434" width="137.5" height="90" as="geometry" />
        </mxCell>
        <mxCell id="zAUp7dM-AJPnExlxfuv2-114" style="edgeStyle=orthogonalEdgeStyle;rounded=0;orthogonalLoop=1;jettySize=auto;html=1;exitX=0.5;exitY=1;exitDx=0;exitDy=0;entryX=0.5;entryY=0;entryDx=0;entryDy=0;" edge="1" parent="WIyWlLk6GJQsqaUBKTNV-1" source="zAUp7dM-AJPnExlxfuv2-104" target="zAUp7dM-AJPnExlxfuv2-113">
          <mxGeometry relative="1" as="geometry" />
        </mxCell>
        <mxCell id="zAUp7dM-AJPnExlxfuv2-115" value="yes" style="edgeLabel;html=1;align=center;verticalAlign=middle;resizable=0;points=[];" vertex="1" connectable="0" parent="zAUp7dM-AJPnExlxfuv2-114">
          <mxGeometry x="-0.1714" y="-1" relative="1" as="geometry">
            <mxPoint as="offset" />
          </mxGeometry>
        </mxCell>
        <mxCell id="zAUp7dM-AJPnExlxfuv2-104" value="&lt;font style=&quot;font-size: 8px;&quot;&gt;IF&lt;br&gt;branch_flag&lt;br&gt;&lt;/font&gt;" style="rhombus;whiteSpace=wrap;html=1;" vertex="1" parent="WIyWlLk6GJQsqaUBKTNV-1">
          <mxGeometry x="2263" y="-979" width="95" height="70" as="geometry" />
        </mxCell>
        <mxCell id="zAUp7dM-AJPnExlxfuv2-112" style="edgeStyle=orthogonalEdgeStyle;rounded=0;orthogonalLoop=1;jettySize=auto;html=1;" edge="1" parent="WIyWlLk6GJQsqaUBKTNV-1" source="zAUp7dM-AJPnExlxfuv2-108">
          <mxGeometry relative="1" as="geometry">
            <mxPoint x="2210.5" y="-944" as="targetPoint" />
          </mxGeometry>
        </mxCell>
        <mxCell id="zAUp7dM-AJPnExlxfuv2-108" value="&lt;p&gt;&lt;span style=&quot;font-size: 8px;&quot;&gt;branch_flag = True&lt;/span&gt;&lt;/p&gt;" style="shape=parallelogram;html=1;strokeWidth=1;perimeter=parallelogramPerimeter;whiteSpace=wrap;rounded=1;arcSize=12;size=0.23;" vertex="1" parent="WIyWlLk6GJQsqaUBKTNV-1">
          <mxGeometry x="2158" y="-414" width="105" height="50" as="geometry" />
        </mxCell>
        <mxCell id="zAUp7dM-AJPnExlxfuv2-113" value="&lt;span style=&quot;font-size: 8px;&quot;&gt;&lt;b&gt;[void] treat_branch(inst)&lt;/b&gt;&lt;br&gt;Check the type of branch flow and call function to act according to it&lt;br&gt;&lt;/span&gt;" style="rounded=1;whiteSpace=wrap;html=1;fillColor=#eeeeee;strokeColor=#36393d;" vertex="1" parent="WIyWlLk6GJQsqaUBKTNV-1">
          <mxGeometry x="2242.5" y="-859" width="136" height="60" as="geometry" />
        </mxCell>
        <mxCell id="zAUp7dM-AJPnExlxfuv2-116" value="END" style="rounded=1;whiteSpace=wrap;html=1;fillColor=#ffcc99;strokeColor=#36393d;shadow=0;rotation=0;" vertex="1" parent="WIyWlLk6GJQsqaUBKTNV-1">
          <mxGeometry x="2398" y="-964" width="60" height="40" as="geometry" />
        </mxCell>
        <mxCell id="zAUp7dM-AJPnExlxfuv2-117" style="edgeStyle=orthogonalEdgeStyle;rounded=0;orthogonalLoop=1;jettySize=auto;html=1;exitX=1;exitY=0.5;exitDx=0;exitDy=0;entryX=0;entryY=0.5;entryDx=0;entryDy=0;" edge="1" parent="WIyWlLk6GJQsqaUBKTNV-1" source="zAUp7dM-AJPnExlxfuv2-104" target="zAUp7dM-AJPnExlxfuv2-116">
          <mxGeometry relative="1" as="geometry" />
        </mxCell>
        <mxCell id="zAUp7dM-AJPnExlxfuv2-118" value="no" style="edgeLabel;html=1;align=center;verticalAlign=middle;resizable=0;points=[];" vertex="1" connectable="0" parent="zAUp7dM-AJPnExlxfuv2-117">
          <mxGeometry x="-0.1214" relative="1" as="geometry">
            <mxPoint as="offset" />
          </mxGeometry>
        </mxCell>
        <mxCell id="zAUp7dM-AJPnExlxfuv2-119" value="&lt;p&gt;&lt;span style=&quot;font-size: 8px;&quot;&gt;(InstructionDB) inst&lt;/span&gt;&lt;/p&gt;" style="shape=parallelogram;html=1;strokeWidth=1;perimeter=parallelogramPerimeter;whiteSpace=wrap;rounded=1;arcSize=12;size=0.23;" vertex="1" parent="WIyWlLk6GJQsqaUBKTNV-1">
          <mxGeometry x="2137.5" y="-1139" width="105" height="50" as="geometry" />
        </mxCell>
        <mxCell id="zAUp7dM-AJPnExlxfuv2-131" style="edgeStyle=orthogonalEdgeStyle;rounded=0;orthogonalLoop=1;jettySize=auto;html=1;exitX=1;exitY=0.5;exitDx=0;exitDy=0;" edge="1" parent="WIyWlLk6GJQsqaUBKTNV-1" source="zAUp7dM-AJPnExlxfuv2-139" target="zAUp7dM-AJPnExlxfuv2-130">
          <mxGeometry relative="1" as="geometry">
            <mxPoint x="2113" y="-274" as="sourcePoint" />
          </mxGeometry>
        </mxCell>
        <mxCell id="zAUp7dM-AJPnExlxfuv2-132" value="yes" style="edgeLabel;html=1;align=center;verticalAlign=middle;resizable=0;points=[];" vertex="1" connectable="0" parent="zAUp7dM-AJPnExlxfuv2-131">
          <mxGeometry x="-0.0338" relative="1" as="geometry">
            <mxPoint as="offset" />
          </mxGeometry>
        </mxCell>
        <mxCell id="zAUp7dM-AJPnExlxfuv2-136" style="edgeStyle=orthogonalEdgeStyle;rounded=0;orthogonalLoop=1;jettySize=auto;html=1;exitX=0.5;exitY=1;exitDx=0;exitDy=0;" edge="1" parent="WIyWlLk6GJQsqaUBKTNV-1" source="zAUp7dM-AJPnExlxfuv2-139">
          <mxGeometry relative="1" as="geometry">
            <mxPoint x="2041.2857142857142" y="-44" as="targetPoint" />
            <mxPoint x="2041.5" y="-244" as="sourcePoint" />
          </mxGeometry>
        </mxCell>
        <mxCell id="zAUp7dM-AJPnExlxfuv2-137" value="no" style="edgeLabel;html=1;align=center;verticalAlign=middle;resizable=0;points=[];" vertex="1" connectable="0" parent="zAUp7dM-AJPnExlxfuv2-136">
          <mxGeometry x="-0.0842" relative="1" as="geometry">
            <mxPoint as="offset" />
          </mxGeometry>
        </mxCell>
        <mxCell id="zAUp7dM-AJPnExlxfuv2-125" style="edgeStyle=orthogonalEdgeStyle;rounded=0;orthogonalLoop=1;jettySize=auto;html=1;" edge="1" parent="WIyWlLk6GJQsqaUBKTNV-1" source="zAUp7dM-AJPnExlxfuv2-124">
          <mxGeometry relative="1" as="geometry">
            <mxPoint x="1738" y="-834.5714285714286" as="targetPoint" />
          </mxGeometry>
        </mxCell>
        <mxCell id="zAUp7dM-AJPnExlxfuv2-124" value="&lt;p&gt;&lt;span style=&quot;font-size: 8px;&quot;&gt;inst = inst.Next&lt;/span&gt;&lt;/p&gt;" style="shape=parallelogram;html=1;strokeWidth=1;perimeter=parallelogramPerimeter;whiteSpace=wrap;rounded=1;arcSize=12;size=0.23;" vertex="1" parent="WIyWlLk6GJQsqaUBKTNV-1">
          <mxGeometry x="1828" y="-74" width="80" height="50" as="geometry" />
        </mxCell>
        <mxCell id="zAUp7dM-AJPnExlxfuv2-134" style="edgeStyle=orthogonalEdgeStyle;rounded=0;orthogonalLoop=1;jettySize=auto;html=1;entryX=0.5;entryY=0;entryDx=0;entryDy=0;" edge="1" parent="WIyWlLk6GJQsqaUBKTNV-1" source="zAUp7dM-AJPnExlxfuv2-130" target="zAUp7dM-AJPnExlxfuv2-133">
          <mxGeometry relative="1" as="geometry" />
        </mxCell>
        <mxCell id="zAUp7dM-AJPnExlxfuv2-130" value="&lt;span style=&quot;font-size: 8px;&quot;&gt;Check the addr of who called (parent) my fn current context&amp;nbsp;&lt;br&gt;&lt;/span&gt;" style="rounded=1;whiteSpace=wrap;html=1;" vertex="1" parent="WIyWlLk6GJQsqaUBKTNV-1">
          <mxGeometry x="2178" y="-289" width="143" height="60" as="geometry" />
        </mxCell>
        <mxCell id="zAUp7dM-AJPnExlxfuv2-135" style="edgeStyle=orthogonalEdgeStyle;rounded=0;orthogonalLoop=1;jettySize=auto;html=1;" edge="1" parent="WIyWlLk6GJQsqaUBKTNV-1" source="zAUp7dM-AJPnExlxfuv2-133" target="zAUp7dM-AJPnExlxfuv2-124">
          <mxGeometry relative="1" as="geometry">
            <Array as="points">
              <mxPoint x="2250" y="-49" />
            </Array>
          </mxGeometry>
        </mxCell>
        <mxCell id="zAUp7dM-AJPnExlxfuv2-133" value="&lt;span style=&quot;font-size: 8px;&quot;&gt;Reset current instruction&amp;nbsp;&lt;br&gt;It is the instruction at parent addr&lt;br&gt;&lt;/span&gt;" style="rounded=1;whiteSpace=wrap;html=1;" vertex="1" parent="WIyWlLk6GJQsqaUBKTNV-1">
          <mxGeometry x="2178" y="-164" width="143" height="60" as="geometry" />
        </mxCell>
        <mxCell id="zAUp7dM-AJPnExlxfuv2-139" value="&lt;font style=&quot;font-size: 8px;&quot;&gt;IF&lt;br&gt;Current inst at the end of my fn context&amp;nbsp;&lt;br&gt;&lt;/font&gt;" style="rhombus;whiteSpace=wrap;html=1;" vertex="1" parent="WIyWlLk6GJQsqaUBKTNV-1">
          <mxGeometry x="1975" y="-304" width="137.5" height="90" as="geometry" />
        </mxCell>
        <mxCell id="zAUp7dM-AJPnExlxfuv2-148" style="edgeStyle=orthogonalEdgeStyle;rounded=0;orthogonalLoop=1;jettySize=auto;html=1;entryX=0.5;entryY=0;entryDx=0;entryDy=0;" edge="1" parent="WIyWlLk6GJQsqaUBKTNV-1" source="zAUp7dM-AJPnExlxfuv2-140" target="zAUp7dM-AJPnExlxfuv2-145">
          <mxGeometry relative="1" as="geometry" />
        </mxCell>
        <mxCell id="zAUp7dM-AJPnExlxfuv2-140" value="START" style="rounded=1;whiteSpace=wrap;html=1;fillColor=#d5e8d4;strokeColor=#82b366;shadow=0;gradientColor=none;rotation=0;" vertex="1" parent="WIyWlLk6GJQsqaUBKTNV-1">
          <mxGeometry x="213" y="30" width="110" height="40" as="geometry" />
        </mxCell>
        <mxCell id="zAUp7dM-AJPnExlxfuv2-141" value="&lt;b&gt;treat_branch(inst)&lt;/b&gt;" style="strokeWidth=2;html=1;shape=mxgraph.flowchart.annotation_1;align=left;pointerEvents=1;" vertex="1" parent="WIyWlLk6GJQsqaUBKTNV-1">
          <mxGeometry x="18" y="20" width="50" height="100" as="geometry" />
        </mxCell>
        <mxCell id="zAUp7dM-AJPnExlxfuv2-142" value="&lt;span style=&quot;font-size: 8px;&quot;&gt;&lt;b&gt;[void] treat_branch(inst)&lt;/b&gt;&lt;br&gt;Check the type of branch flow and call function to act according to it&lt;br&gt;&lt;/span&gt;" style="rounded=1;whiteSpace=wrap;html=1;fillColor=#eeeeee;strokeColor=#36393d;" vertex="1" parent="WIyWlLk6GJQsqaUBKTNV-1">
          <mxGeometry x="400" y="-850" width="136" height="60" as="geometry" />
        </mxCell>
        <mxCell id="zAUp7dM-AJPnExlxfuv2-143" value="&lt;p&gt;&lt;span style=&quot;font-size: 8px;&quot;&gt;(InstructionDB) inst&lt;/span&gt;&lt;/p&gt;" style="shape=parallelogram;html=1;strokeWidth=1;perimeter=parallelogramPerimeter;whiteSpace=wrap;rounded=1;arcSize=12;size=0.23;" vertex="1" parent="WIyWlLk6GJQsqaUBKTNV-1">
          <mxGeometry x="343" y="20" width="105" height="50" as="geometry" />
        </mxCell>
        <mxCell id="zAUp7dM-AJPnExlxfuv2-145" value="&lt;p&gt;&lt;span style=&quot;font-size: 8px;&quot;&gt;dest_addr = None&lt;/span&gt;&lt;/p&gt;" style="shape=parallelogram;html=1;strokeWidth=1;perimeter=parallelogramPerimeter;whiteSpace=wrap;rounded=1;arcSize=12;size=0.23;" vertex="1" parent="WIyWlLk6GJQsqaUBKTNV-1">
          <mxGeometry x="215.5" y="100" width="105" height="50" as="geometry" />
        </mxCell>
        <mxCell id="zAUp7dM-AJPnExlxfuv2-153" style="edgeStyle=orthogonalEdgeStyle;rounded=0;orthogonalLoop=1;jettySize=auto;html=1;entryX=0.5;entryY=0;entryDx=0;entryDy=0;" edge="1" parent="WIyWlLk6GJQsqaUBKTNV-1" source="zAUp7dM-AJPnExlxfuv2-149" target="zAUp7dM-AJPnExlxfuv2-152">
          <mxGeometry relative="1" as="geometry" />
        </mxCell>
        <mxCell id="zAUp7dM-AJPnExlxfuv2-149" value="&lt;p&gt;&lt;span style=&quot;font-size: 8px;&quot;&gt;branch_info = dict()&lt;/span&gt;&lt;/p&gt;" style="shape=parallelogram;html=1;strokeWidth=1;perimeter=parallelogramPerimeter;whiteSpace=wrap;rounded=1;arcSize=12;size=0.23;" vertex="1" parent="WIyWlLk6GJQsqaUBKTNV-1">
          <mxGeometry x="203" y="185" width="105" height="50" as="geometry" />
        </mxCell>
        <mxCell id="zAUp7dM-AJPnExlxfuv2-151" style="edgeStyle=orthogonalEdgeStyle;rounded=0;orthogonalLoop=1;jettySize=auto;html=1;entryX=0.624;entryY=-0.006;entryDx=0;entryDy=0;entryPerimeter=0;" edge="1" parent="WIyWlLk6GJQsqaUBKTNV-1" source="zAUp7dM-AJPnExlxfuv2-145" target="zAUp7dM-AJPnExlxfuv2-149">
          <mxGeometry relative="1" as="geometry" />
        </mxCell>
        <mxCell id="zAUp7dM-AJPnExlxfuv2-158" style="edgeStyle=orthogonalEdgeStyle;rounded=0;orthogonalLoop=1;jettySize=auto;html=1;" edge="1" parent="WIyWlLk6GJQsqaUBKTNV-1" source="zAUp7dM-AJPnExlxfuv2-152" target="zAUp7dM-AJPnExlxfuv2-156">
          <mxGeometry relative="1" as="geometry">
            <mxPoint x="153" y="350" as="targetPoint" />
            <Array as="points">
              <mxPoint x="155" y="295" />
            </Array>
          </mxGeometry>
        </mxCell>
        <mxCell id="zAUp7dM-AJPnExlxfuv2-161" value="no" style="edgeLabel;html=1;align=center;verticalAlign=middle;resizable=0;points=[];" vertex="1" connectable="0" parent="zAUp7dM-AJPnExlxfuv2-158">
          <mxGeometry x="0.3147" relative="1" as="geometry">
            <mxPoint as="offset" />
          </mxGeometry>
        </mxCell>
        <mxCell id="zAUp7dM-AJPnExlxfuv2-152" value="&lt;font style=&quot;font-size: 8px;&quot;&gt;IF&lt;br&gt;mnemonic &quot;bl&quot; or &quot;blx&quot; or flow.isCall&lt;br&gt;&lt;/font&gt;" style="rhombus;whiteSpace=wrap;html=1;" vertex="1" parent="WIyWlLk6GJQsqaUBKTNV-1">
          <mxGeometry x="193" y="260" width="125" height="70" as="geometry" />
        </mxCell>
        <mxCell id="zAUp7dM-AJPnExlxfuv2-154" value="&lt;p&gt;&lt;span style=&quot;font-size: 8px;&quot;&gt;linked_branch = True&lt;/span&gt;&lt;/p&gt;" style="shape=parallelogram;html=1;strokeWidth=1;perimeter=parallelogramPerimeter;whiteSpace=wrap;rounded=1;arcSize=12;size=0.23;" vertex="1" parent="WIyWlLk6GJQsqaUBKTNV-1">
          <mxGeometry x="291" y="330" width="105" height="50" as="geometry" />
        </mxCell>
        <mxCell id="zAUp7dM-AJPnExlxfuv2-164" style="edgeStyle=orthogonalEdgeStyle;rounded=0;orthogonalLoop=1;jettySize=auto;html=1;" edge="1" parent="WIyWlLk6GJQsqaUBKTNV-1" source="zAUp7dM-AJPnExlxfuv2-156" target="zAUp7dM-AJPnExlxfuv2-163">
          <mxGeometry relative="1" as="geometry">
            <Array as="points">
              <mxPoint x="155" y="400" />
              <mxPoint x="245" y="400" />
            </Array>
          </mxGeometry>
        </mxCell>
        <mxCell id="zAUp7dM-AJPnExlxfuv2-156" value="&lt;p&gt;&lt;span style=&quot;font-size: 8px;&quot;&gt;linked_branch = False&lt;/span&gt;&lt;/p&gt;" style="shape=parallelogram;html=1;strokeWidth=1;perimeter=parallelogramPerimeter;whiteSpace=wrap;rounded=1;arcSize=12;size=0.23;" vertex="1" parent="WIyWlLk6GJQsqaUBKTNV-1">
          <mxGeometry x="98" y="340" width="115" height="50" as="geometry" />
        </mxCell>
        <mxCell id="zAUp7dM-AJPnExlxfuv2-160" style="edgeStyle=orthogonalEdgeStyle;rounded=0;orthogonalLoop=1;jettySize=auto;html=1;exitX=1;exitY=0.5;exitDx=0;exitDy=0;entryX=0.679;entryY=0.037;entryDx=0;entryDy=0;entryPerimeter=0;" edge="1" parent="WIyWlLk6GJQsqaUBKTNV-1" source="zAUp7dM-AJPnExlxfuv2-152" target="zAUp7dM-AJPnExlxfuv2-154">
          <mxGeometry relative="1" as="geometry" />
        </mxCell>
        <mxCell id="zAUp7dM-AJPnExlxfuv2-162" value="yes" style="edgeLabel;html=1;align=center;verticalAlign=middle;resizable=0;points=[];" vertex="1" connectable="0" parent="zAUp7dM-AJPnExlxfuv2-160">
          <mxGeometry x="0.1657" y="-1" relative="1" as="geometry">
            <mxPoint as="offset" />
          </mxGeometry>
        </mxCell>
        <mxCell id="zAUp7dM-AJPnExlxfuv2-168" style="edgeStyle=orthogonalEdgeStyle;rounded=0;orthogonalLoop=1;jettySize=auto;html=1;" edge="1" parent="WIyWlLk6GJQsqaUBKTNV-1" source="zAUp7dM-AJPnExlxfuv2-163" target="zAUp7dM-AJPnExlxfuv2-167">
          <mxGeometry relative="1" as="geometry" />
        </mxCell>
        <mxCell id="zAUp7dM-AJPnExlxfuv2-163" value="&lt;p&gt;&lt;span style=&quot;font-size: 8px;&quot;&gt;num_operands&lt;/span&gt;&lt;/p&gt;" style="shape=parallelogram;html=1;strokeWidth=1;perimeter=parallelogramPerimeter;whiteSpace=wrap;rounded=1;arcSize=12;size=0.23;" vertex="1" parent="WIyWlLk6GJQsqaUBKTNV-1">
          <mxGeometry x="193" y="420" width="105" height="50" as="geometry" />
        </mxCell>
        <mxCell id="zAUp7dM-AJPnExlxfuv2-165" style="edgeStyle=orthogonalEdgeStyle;rounded=0;orthogonalLoop=1;jettySize=auto;html=1;entryX=0.615;entryY=0.02;entryDx=0;entryDy=0;entryPerimeter=0;" edge="1" parent="WIyWlLk6GJQsqaUBKTNV-1" source="zAUp7dM-AJPnExlxfuv2-154" target="zAUp7dM-AJPnExlxfuv2-163">
          <mxGeometry relative="1" as="geometry">
            <Array as="points">
              <mxPoint x="343" y="400" />
              <mxPoint x="268" y="400" />
              <mxPoint x="268" y="421" />
            </Array>
          </mxGeometry>
        </mxCell>
        <mxCell id="zAUp7dM-AJPnExlxfuv2-171" style="edgeStyle=orthogonalEdgeStyle;rounded=0;orthogonalLoop=1;jettySize=auto;html=1;entryX=0.5;entryY=0;entryDx=0;entryDy=0;" edge="1" parent="WIyWlLk6GJQsqaUBKTNV-1" source="zAUp7dM-AJPnExlxfuv2-167" target="zAUp7dM-AJPnExlxfuv2-170">
          <mxGeometry relative="1" as="geometry" />
        </mxCell>
        <mxCell id="zAUp7dM-AJPnExlxfuv2-172" value="yes" style="edgeLabel;html=1;align=center;verticalAlign=middle;resizable=0;points=[];" vertex="1" connectable="0" parent="zAUp7dM-AJPnExlxfuv2-171">
          <mxGeometry x="-0.4149" y="-2" relative="1" as="geometry">
            <mxPoint as="offset" />
          </mxGeometry>
        </mxCell>
        <mxCell id="zAUp7dM-AJPnExlxfuv2-167" value="&lt;font style=&quot;font-size: 8px;&quot;&gt;FOR&lt;br&gt;i in range of num_operands&lt;br&gt;&lt;/font&gt;" style="rhombus;whiteSpace=wrap;html=1;" vertex="1" parent="WIyWlLk6GJQsqaUBKTNV-1">
          <mxGeometry x="170.5" y="490" width="150" height="80" as="geometry" />
        </mxCell>
        <mxCell id="zAUp7dM-AJPnExlxfuv2-186" style="edgeStyle=orthogonalEdgeStyle;rounded=0;orthogonalLoop=1;jettySize=auto;html=1;entryX=0.5;entryY=0;entryDx=0;entryDy=0;" edge="1" parent="WIyWlLk6GJQsqaUBKTNV-1" source="zAUp7dM-AJPnExlxfuv2-169" target="zAUp7dM-AJPnExlxfuv2-185">
          <mxGeometry relative="1" as="geometry" />
        </mxCell>
        <mxCell id="zAUp7dM-AJPnExlxfuv2-169" value="&lt;p&gt;&lt;span style=&quot;font-size: 8px;&quot;&gt;dest_addr_type&lt;/span&gt;&lt;/p&gt;" style="shape=parallelogram;html=1;strokeWidth=1;perimeter=parallelogramPerimeter;whiteSpace=wrap;rounded=1;arcSize=12;size=0.23;" vertex="1" parent="WIyWlLk6GJQsqaUBKTNV-1">
          <mxGeometry x="193" y="865" width="105" height="50" as="geometry" />
        </mxCell>
        <mxCell id="zAUp7dM-AJPnExlxfuv2-176" style="edgeStyle=orthogonalEdgeStyle;rounded=0;orthogonalLoop=1;jettySize=auto;html=1;" edge="1" parent="WIyWlLk6GJQsqaUBKTNV-1" source="zAUp7dM-AJPnExlxfuv2-170" target="zAUp7dM-AJPnExlxfuv2-174">
          <mxGeometry relative="1" as="geometry" />
        </mxCell>
        <mxCell id="zAUp7dM-AJPnExlxfuv2-170" value="&lt;p&gt;&lt;span style=&quot;font-size: 8px;&quot;&gt;operand_type&lt;/span&gt;&lt;/p&gt;" style="shape=parallelogram;html=1;strokeWidth=1;perimeter=parallelogramPerimeter;whiteSpace=wrap;rounded=1;arcSize=12;size=0.23;" vertex="1" parent="WIyWlLk6GJQsqaUBKTNV-1">
          <mxGeometry x="193" y="610" width="105" height="50" as="geometry" />
        </mxCell>
        <mxCell id="zAUp7dM-AJPnExlxfuv2-179" style="edgeStyle=orthogonalEdgeStyle;rounded=0;orthogonalLoop=1;jettySize=auto;html=1;entryX=0.5;entryY=0;entryDx=0;entryDy=0;exitX=0;exitY=0.5;exitDx=0;exitDy=0;" edge="1" parent="WIyWlLk6GJQsqaUBKTNV-1" source="zAUp7dM-AJPnExlxfuv2-174" target="zAUp7dM-AJPnExlxfuv2-175">
          <mxGeometry relative="1" as="geometry">
            <Array as="points">
              <mxPoint x="173" y="720" />
            </Array>
          </mxGeometry>
        </mxCell>
        <mxCell id="zAUp7dM-AJPnExlxfuv2-180" value="ADDRESS" style="edgeLabel;html=1;align=center;verticalAlign=middle;resizable=0;points=[];" vertex="1" connectable="0" parent="zAUp7dM-AJPnExlxfuv2-179">
          <mxGeometry x="0.2069" y="-1" relative="1" as="geometry">
            <mxPoint as="offset" />
          </mxGeometry>
        </mxCell>
        <mxCell id="zAUp7dM-AJPnExlxfuv2-174" value="&lt;font style=&quot;font-size: 8px;&quot;&gt;IF&lt;br&gt;operand_type&amp;nbsp;&lt;br&gt;&lt;/font&gt;" style="rhombus;whiteSpace=wrap;html=1;fillColor=#ffcccc;strokeColor=#36393d;" vertex="1" parent="WIyWlLk6GJQsqaUBKTNV-1">
          <mxGeometry x="185.5" y="690" width="120" height="60" as="geometry" />
        </mxCell>
        <mxCell id="zAUp7dM-AJPnExlxfuv2-184" style="edgeStyle=orthogonalEdgeStyle;rounded=0;orthogonalLoop=1;jettySize=auto;html=1;" edge="1" parent="WIyWlLk6GJQsqaUBKTNV-1" source="zAUp7dM-AJPnExlxfuv2-175" target="zAUp7dM-AJPnExlxfuv2-169">
          <mxGeometry relative="1" as="geometry" />
        </mxCell>
        <mxCell id="zAUp7dM-AJPnExlxfuv2-175" value="&lt;p&gt;&lt;span style=&quot;font-size: 8px;&quot;&gt;dest_addr =&amp;nbsp;&lt;/span&gt;&lt;/p&gt;&lt;p&gt;&lt;span style=&quot;font-size: 8px; background-color: initial;&quot;&gt;inst.getObjects(i)[0]&lt;/span&gt;&lt;/p&gt;" style="shape=parallelogram;html=1;strokeWidth=1;perimeter=parallelogramPerimeter;whiteSpace=wrap;rounded=1;arcSize=12;size=0.23;fillColor=#ffcccc;strokeColor=#36393d;" vertex="1" parent="WIyWlLk6GJQsqaUBKTNV-1">
          <mxGeometry x="113" y="770" width="120" height="60" as="geometry" />
        </mxCell>
        <mxCell id="zAUp7dM-AJPnExlxfuv2-183" style="edgeStyle=orthogonalEdgeStyle;rounded=0;orthogonalLoop=1;jettySize=auto;html=1;" edge="1" parent="WIyWlLk6GJQsqaUBKTNV-1" source="zAUp7dM-AJPnExlxfuv2-177" target="zAUp7dM-AJPnExlxfuv2-169">
          <mxGeometry relative="1" as="geometry" />
        </mxCell>
        <mxCell id="zAUp7dM-AJPnExlxfuv2-177" value="&lt;p&gt;&lt;span style=&quot;font-size: 8px;&quot;&gt;dest_addr =&amp;nbsp;&lt;/span&gt;&lt;/p&gt;&lt;p&gt;&lt;span style=&quot;font-size: 8px; background-color: initial;&quot;&gt;inst.getObjects(i)[0]&lt;/span&gt;&lt;/p&gt;" style="shape=parallelogram;html=1;strokeWidth=1;perimeter=parallelogramPerimeter;whiteSpace=wrap;rounded=1;arcSize=12;size=0.23;fillColor=#ffcccc;strokeColor=#36393d;" vertex="1" parent="WIyWlLk6GJQsqaUBKTNV-1">
          <mxGeometry x="263" y="770" width="120" height="60" as="geometry" />
        </mxCell>
        <mxCell id="zAUp7dM-AJPnExlxfuv2-178" style="edgeStyle=orthogonalEdgeStyle;rounded=0;orthogonalLoop=1;jettySize=auto;html=1;exitX=1;exitY=0.5;exitDx=0;exitDy=0;entryX=0.588;entryY=0.036;entryDx=0;entryDy=0;entryPerimeter=0;" edge="1" parent="WIyWlLk6GJQsqaUBKTNV-1" source="zAUp7dM-AJPnExlxfuv2-174" target="zAUp7dM-AJPnExlxfuv2-177">
          <mxGeometry relative="1" as="geometry" />
        </mxCell>
        <mxCell id="zAUp7dM-AJPnExlxfuv2-181" value="REGISTER" style="edgeLabel;html=1;align=center;verticalAlign=middle;resizable=0;points=[];" vertex="1" connectable="0" parent="zAUp7dM-AJPnExlxfuv2-178">
          <mxGeometry x="0.2643" y="1" relative="1" as="geometry">
            <mxPoint as="offset" />
          </mxGeometry>
        </mxCell>
        <mxCell id="zAUp7dM-AJPnExlxfuv2-185" value="&lt;span style=&quot;font-size: 8px;&quot;&gt;Check if dest_addr_type. If it isn&#39;t generic addr, then search if previous inst was ldr and save addr; if not, inst = next&lt;br&gt;&lt;/span&gt;" style="rounded=1;whiteSpace=wrap;html=1;fillColor=#ffcccc;strokeColor=#36393d;" vertex="1" parent="WIyWlLk6GJQsqaUBKTNV-1">
          <mxGeometry x="174" y="940" width="143" height="60" as="geometry" />
        </mxCell>
        <mxCell id="zAUp7dM-AJPnExlxfuv2-196" style="edgeStyle=orthogonalEdgeStyle;rounded=0;orthogonalLoop=1;jettySize=auto;html=1;entryX=0.5;entryY=0;entryDx=0;entryDy=0;" edge="1" source="zAUp7dM-AJPnExlxfuv2-197" target="zAUp7dM-AJPnExlxfuv2-198" parent="WIyWlLk6GJQsqaUBKTNV-1">
          <mxGeometry relative="1" as="geometry" />
        </mxCell>
        <mxCell id="zAUp7dM-AJPnExlxfuv2-197" value="&lt;p&gt;&lt;span style=&quot;font-size: 8px;&quot;&gt;inst_type = FlowType&lt;/span&gt;&lt;/p&gt;" style="shape=parallelogram;html=1;strokeWidth=1;perimeter=parallelogramPerimeter;whiteSpace=wrap;rounded=1;arcSize=12;size=0.23;" vertex="1" parent="WIyWlLk6GJQsqaUBKTNV-1">
          <mxGeometry x="437.5" y="100" width="105" height="50" as="geometry" />
        </mxCell>
        <mxCell id="zAUp7dM-AJPnExlxfuv2-204" style="edgeStyle=orthogonalEdgeStyle;rounded=0;orthogonalLoop=1;jettySize=auto;html=1;exitX=1;exitY=0.5;exitDx=0;exitDy=0;entryX=0;entryY=0.5;entryDx=0;entryDy=0;" edge="1" parent="WIyWlLk6GJQsqaUBKTNV-1" source="zAUp7dM-AJPnExlxfuv2-198" target="zAUp7dM-AJPnExlxfuv2-199">
          <mxGeometry relative="1" as="geometry" />
        </mxCell>
        <mxCell id="zAUp7dM-AJPnExlxfuv2-205" value="yes" style="edgeLabel;html=1;align=center;verticalAlign=middle;resizable=0;points=[];" vertex="1" connectable="0" parent="zAUp7dM-AJPnExlxfuv2-204">
          <mxGeometry x="-0.3173" relative="1" as="geometry">
            <mxPoint as="offset" />
          </mxGeometry>
        </mxCell>
        <mxCell id="zAUp7dM-AJPnExlxfuv2-274" style="edgeStyle=orthogonalEdgeStyle;rounded=0;orthogonalLoop=1;jettySize=auto;html=1;" edge="1" parent="WIyWlLk6GJQsqaUBKTNV-1" source="zAUp7dM-AJPnExlxfuv2-198" target="zAUp7dM-AJPnExlxfuv2-273">
          <mxGeometry relative="1" as="geometry" />
        </mxCell>
        <mxCell id="zAUp7dM-AJPnExlxfuv2-198" value="&lt;font style=&quot;font-size: 8px;&quot;&gt;IF&lt;br&gt;inst_type terminator&lt;br&gt;&lt;/font&gt;" style="rhombus;whiteSpace=wrap;html=1;" vertex="1" parent="WIyWlLk6GJQsqaUBKTNV-1">
          <mxGeometry x="430" y="175" width="120" height="60" as="geometry" />
        </mxCell>
        <mxCell id="zAUp7dM-AJPnExlxfuv2-208" style="edgeStyle=orthogonalEdgeStyle;rounded=0;orthogonalLoop=1;jettySize=auto;html=1;entryX=1;entryY=0.5;entryDx=0;entryDy=0;" edge="1" parent="WIyWlLk6GJQsqaUBKTNV-1" source="zAUp7dM-AJPnExlxfuv2-199" target="zAUp7dM-AJPnExlxfuv2-207">
          <mxGeometry relative="1" as="geometry">
            <Array as="points">
              <mxPoint x="820" y="205" />
              <mxPoint x="820" y="730" />
            </Array>
          </mxGeometry>
        </mxCell>
        <mxCell id="zAUp7dM-AJPnExlxfuv2-199" value="&lt;span style=&quot;font-size: 8px;&quot;&gt;&lt;b&gt;[Ghidra Addr] set_terminator_dest_addr(inst)&lt;/b&gt;&lt;br&gt;&lt;/span&gt;" style="rounded=1;whiteSpace=wrap;html=1;fillColor=#eeeeee;strokeColor=#36393d;" vertex="1" parent="WIyWlLk6GJQsqaUBKTNV-1">
          <mxGeometry x="618" y="187.5" width="192" height="35" as="geometry" />
        </mxCell>
        <mxCell id="zAUp7dM-AJPnExlxfuv2-200" style="edgeStyle=orthogonalEdgeStyle;rounded=0;orthogonalLoop=1;jettySize=auto;html=1;entryX=0.143;entryY=0.431;entryDx=0;entryDy=0;entryPerimeter=0;" edge="1" parent="WIyWlLk6GJQsqaUBKTNV-1" source="zAUp7dM-AJPnExlxfuv2-185" target="zAUp7dM-AJPnExlxfuv2-197">
          <mxGeometry relative="1" as="geometry">
            <Array as="points">
              <mxPoint x="398" y="970" />
              <mxPoint x="398" y="122" />
            </Array>
          </mxGeometry>
        </mxCell>
        <mxCell id="zAUp7dM-AJPnExlxfuv2-211" style="edgeStyle=orthogonalEdgeStyle;rounded=0;orthogonalLoop=1;jettySize=auto;html=1;" edge="1" parent="WIyWlLk6GJQsqaUBKTNV-1" source="zAUp7dM-AJPnExlxfuv2-207" target="zAUp7dM-AJPnExlxfuv2-210">
          <mxGeometry relative="1" as="geometry" />
        </mxCell>
        <mxCell id="zAUp7dM-AJPnExlxfuv2-207" value="&lt;p&gt;&lt;span style=&quot;font-size: 8px;&quot;&gt;branch_info[inst addr] =&amp;nbsp;&lt;/span&gt;&lt;/p&gt;&lt;p&gt;&lt;span style=&quot;font-size: 8px;&quot;&gt;&amp;nbsp; &amp;nbsp; &amp;nbsp; &amp;nbsp; { &quot;branch_type&quot;: inst_type,&lt;/span&gt;&lt;span style=&quot;font-size: 8px; background-color: initial;&quot;&gt;&amp;nbsp; &amp;nbsp; &amp;nbsp; &amp;nbsp; &quot;linked_branch&quot;: linked_branch&lt;/span&gt;&lt;span style=&quot;font-size: 8px; background-color: initial;&quot;&gt;&quot;; dest_addr&quot;: dest_add&lt;/span&gt;&lt;span style=&quot;font-size: 8px; background-color: initial;&quot;&gt;&amp;nbsp; }&lt;/span&gt;&lt;/p&gt;" style="shape=parallelogram;html=1;strokeWidth=1;perimeter=parallelogramPerimeter;whiteSpace=wrap;rounded=1;arcSize=12;size=0.23;" vertex="1" parent="WIyWlLk6GJQsqaUBKTNV-1">
          <mxGeometry x="627" y="680" width="150" height="100" as="geometry" />
        </mxCell>
        <mxCell id="zAUp7dM-AJPnExlxfuv2-223" style="edgeStyle=orthogonalEdgeStyle;rounded=0;orthogonalLoop=1;jettySize=auto;html=1;" edge="1" parent="WIyWlLk6GJQsqaUBKTNV-1" source="zAUp7dM-AJPnExlxfuv2-210" target="zAUp7dM-AJPnExlxfuv2-219">
          <mxGeometry relative="1" as="geometry" />
        </mxCell>
        <mxCell id="zAUp7dM-AJPnExlxfuv2-210" value="&lt;p&gt;&lt;span style=&quot;font-size: 8px;&quot;&gt;branch_map.&lt;/span&gt;&lt;/p&gt;&lt;p&gt;&lt;span style=&quot;background-color: initial; font-size: 8px;&quot;&gt;append(branch_info)&lt;/span&gt;&lt;/p&gt;" style="shape=parallelogram;html=1;strokeWidth=1;perimeter=parallelogramPerimeter;whiteSpace=wrap;rounded=1;arcSize=12;size=0.23;fillColor=#ffff88;strokeColor=#36393d;" vertex="1" parent="WIyWlLk6GJQsqaUBKTNV-1">
          <mxGeometry x="637" y="800" width="130" height="50" as="geometry" />
        </mxCell>
        <mxCell id="zAUp7dM-AJPnExlxfuv2-215" value="&lt;font style=&quot;font-size: 8px;&quot;&gt;global&lt;/font&gt;" style="text;html=1;strokeColor=none;fillColor=none;align=center;verticalAlign=middle;whiteSpace=wrap;rounded=0;" vertex="1" parent="WIyWlLk6GJQsqaUBKTNV-1">
          <mxGeometry x="737" y="945" width="60" height="30" as="geometry" />
        </mxCell>
        <mxCell id="zAUp7dM-AJPnExlxfuv2-216" value="END" style="rounded=1;whiteSpace=wrap;html=1;fillColor=#ffcc99;strokeColor=#36393d;shadow=0;rotation=0;" vertex="1" parent="WIyWlLk6GJQsqaUBKTNV-1">
          <mxGeometry x="420" y="1110" width="60" height="40" as="geometry" />
        </mxCell>
        <mxCell id="zAUp7dM-AJPnExlxfuv2-218" style="edgeStyle=orthogonalEdgeStyle;rounded=0;orthogonalLoop=1;jettySize=auto;html=1;" edge="1" parent="WIyWlLk6GJQsqaUBKTNV-1" source="zAUp7dM-AJPnExlxfuv2-219" target="zAUp7dM-AJPnExlxfuv2-221">
          <mxGeometry relative="1" as="geometry" />
        </mxCell>
        <mxCell id="zAUp7dM-AJPnExlxfuv2-219" value="&lt;span style=&quot;font-size: 8px;&quot;&gt;&lt;b&gt;[InstructionDB] got_to_address(ref_addr)&lt;/b&gt;&lt;br&gt;Go to instruction at entry_fn&lt;br&gt;&lt;/span&gt;" style="rounded=1;whiteSpace=wrap;html=1;fillColor=#eeeeee;strokeColor=#36393d;" vertex="1" parent="WIyWlLk6GJQsqaUBKTNV-1">
          <mxGeometry x="617" y="880" width="170" height="60" as="geometry" />
        </mxCell>
        <mxCell id="zAUp7dM-AJPnExlxfuv2-282" style="edgeStyle=orthogonalEdgeStyle;rounded=0;orthogonalLoop=1;jettySize=auto;html=1;entryX=0.5;entryY=0;entryDx=0;entryDy=0;" edge="1" parent="WIyWlLk6GJQsqaUBKTNV-1" source="zAUp7dM-AJPnExlxfuv2-221" target="zAUp7dM-AJPnExlxfuv2-281">
          <mxGeometry relative="1" as="geometry" />
        </mxCell>
        <mxCell id="zAUp7dM-AJPnExlxfuv2-221" value="&lt;p&gt;&lt;span style=&quot;font-size: 8px;&quot;&gt;next_inst_addr&lt;/span&gt;&lt;/p&gt;" style="shape=parallelogram;html=1;strokeWidth=1;perimeter=parallelogramPerimeter;whiteSpace=wrap;rounded=1;arcSize=12;size=0.23;" vertex="1" parent="WIyWlLk6GJQsqaUBKTNV-1">
          <mxGeometry x="662" y="960" width="80" height="50" as="geometry" />
        </mxCell>
        <mxCell id="zAUp7dM-AJPnExlxfuv2-227" style="edgeStyle=orthogonalEdgeStyle;rounded=0;orthogonalLoop=1;jettySize=auto;html=1;entryX=0.5;entryY=0;entryDx=0;entryDy=0;" edge="1" parent="WIyWlLk6GJQsqaUBKTNV-1" source="zAUp7dM-AJPnExlxfuv2-228" target="zAUp7dM-AJPnExlxfuv2-230">
          <mxGeometry relative="1" as="geometry" />
        </mxCell>
        <mxCell id="zAUp7dM-AJPnExlxfuv2-228" value="Start" style="rounded=1;whiteSpace=wrap;html=1;fillColor=#d5e8d4;strokeColor=#82b366;shadow=0;gradientColor=none;rotation=0;" vertex="1" parent="WIyWlLk6GJQsqaUBKTNV-1">
          <mxGeometry x="1140.75" y="-1139" width="110" height="40" as="geometry" />
        </mxCell>
        <mxCell id="zAUp7dM-AJPnExlxfuv2-229" style="edgeStyle=orthogonalEdgeStyle;rounded=0;orthogonalLoop=1;jettySize=auto;html=1;entryX=0.5;entryY=0;entryDx=0;entryDy=0;" edge="1" parent="WIyWlLk6GJQsqaUBKTNV-1" source="zAUp7dM-AJPnExlxfuv2-230" target="zAUp7dM-AJPnExlxfuv2-232">
          <mxGeometry relative="1" as="geometry" />
        </mxCell>
        <mxCell id="zAUp7dM-AJPnExlxfuv2-230" value="&lt;p&gt;&lt;font style=&quot;font-size: 8px;&quot; face=&quot;Helvetica&quot;&gt;Set&amp;nbsp;&lt;/font&gt;&lt;span style=&quot;background-color: initial; font-size: 8px;&quot;&gt;entry_point name&lt;/span&gt;&lt;span style=&quot;background-color: initial; font-size: 8px;&quot;&gt;&amp;nbsp;as entry&lt;/span&gt;&lt;/p&gt;" style="shape=parallelogram;html=1;strokeWidth=1;perimeter=parallelogramPerimeter;whiteSpace=wrap;rounded=1;arcSize=12;size=0.23;" vertex="1" parent="WIyWlLk6GJQsqaUBKTNV-1">
          <mxGeometry x="1155.75" y="-1079" width="80" height="50" as="geometry" />
        </mxCell>
        <mxCell id="zAUp7dM-AJPnExlxfuv2-231" value="" style="edgeStyle=orthogonalEdgeStyle;rounded=0;orthogonalLoop=1;jettySize=auto;html=1;" edge="1" parent="WIyWlLk6GJQsqaUBKTNV-1" source="zAUp7dM-AJPnExlxfuv2-232" target="zAUp7dM-AJPnExlxfuv2-237">
          <mxGeometry relative="1" as="geometry" />
        </mxCell>
        <mxCell id="zAUp7dM-AJPnExlxfuv2-232" value="&lt;span style=&quot;font-size: 8px;&quot;&gt;Get address of function named as entry_point&lt;/span&gt;" style="rounded=1;whiteSpace=wrap;html=1;" vertex="1" parent="WIyWlLk6GJQsqaUBKTNV-1">
          <mxGeometry x="1135.75" y="-1009" width="120" height="60" as="geometry" />
        </mxCell>
        <mxCell id="zAUp7dM-AJPnExlxfuv2-233" style="edgeStyle=orthogonalEdgeStyle;rounded=0;orthogonalLoop=1;jettySize=auto;html=1;entryX=0.5;entryY=0;entryDx=0;entryDy=0;" edge="1" parent="WIyWlLk6GJQsqaUBKTNV-1" source="zAUp7dM-AJPnExlxfuv2-237" target="zAUp7dM-AJPnExlxfuv2-239">
          <mxGeometry relative="1" as="geometry" />
        </mxCell>
        <mxCell id="zAUp7dM-AJPnExlxfuv2-234" value="&lt;font style=&quot;font-size: 8px;&quot;&gt;no&lt;/font&gt;" style="edgeLabel;html=1;align=center;verticalAlign=middle;resizable=0;points=[];" vertex="1" connectable="0" parent="zAUp7dM-AJPnExlxfuv2-233">
          <mxGeometry x="-0.0711" y="1" relative="1" as="geometry">
            <mxPoint as="offset" />
          </mxGeometry>
        </mxCell>
        <mxCell id="zAUp7dM-AJPnExlxfuv2-235" style="edgeStyle=orthogonalEdgeStyle;rounded=0;orthogonalLoop=1;jettySize=auto;html=1;" edge="1" parent="WIyWlLk6GJQsqaUBKTNV-1" source="zAUp7dM-AJPnExlxfuv2-237" target="zAUp7dM-AJPnExlxfuv2-243">
          <mxGeometry relative="1" as="geometry" />
        </mxCell>
        <mxCell id="zAUp7dM-AJPnExlxfuv2-236" value="&lt;font style=&quot;font-size: 8px;&quot;&gt;yes&lt;/font&gt;" style="edgeLabel;html=1;align=center;verticalAlign=middle;resizable=0;points=[];" vertex="1" connectable="0" parent="zAUp7dM-AJPnExlxfuv2-235">
          <mxGeometry x="-0.059" y="-1" relative="1" as="geometry">
            <mxPoint as="offset" />
          </mxGeometry>
        </mxCell>
        <mxCell id="zAUp7dM-AJPnExlxfuv2-237" value="&lt;font style=&quot;font-size: 8px;&quot;&gt;Entry addr found&lt;/font&gt;" style="rhombus;whiteSpace=wrap;html=1;" vertex="1" parent="WIyWlLk6GJQsqaUBKTNV-1">
          <mxGeometry x="1154.75" y="-929" width="80" height="80" as="geometry" />
        </mxCell>
        <mxCell id="zAUp7dM-AJPnExlxfuv2-238" style="edgeStyle=orthogonalEdgeStyle;rounded=0;orthogonalLoop=1;jettySize=auto;html=1;" edge="1" parent="WIyWlLk6GJQsqaUBKTNV-1" source="zAUp7dM-AJPnExlxfuv2-239" target="zAUp7dM-AJPnExlxfuv2-241">
          <mxGeometry relative="1" as="geometry" />
        </mxCell>
        <mxCell id="zAUp7dM-AJPnExlxfuv2-239" value="&lt;p&gt;&lt;font style=&quot;font-size: 8px;&quot; face=&quot;Helvetica&quot;&gt;Set&amp;nbsp;&lt;/font&gt;&lt;span style=&quot;background-color: initial; font-size: 8px;&quot;&gt;entry_point name&lt;/span&gt;&lt;span style=&quot;background-color: initial; font-size: 8px;&quot;&gt;&amp;nbsp;as main&lt;/span&gt;&lt;/p&gt;" style="shape=parallelogram;html=1;strokeWidth=1;perimeter=parallelogramPerimeter;whiteSpace=wrap;rounded=1;arcSize=12;size=0.23;" vertex="1" parent="WIyWlLk6GJQsqaUBKTNV-1">
          <mxGeometry x="1020.75" y="-869" width="80" height="50" as="geometry" />
        </mxCell>
        <mxCell id="zAUp7dM-AJPnExlxfuv2-240" style="edgeStyle=orthogonalEdgeStyle;rounded=0;orthogonalLoop=1;jettySize=auto;html=1;entryX=0;entryY=0.5;entryDx=0;entryDy=0;" edge="1" parent="WIyWlLk6GJQsqaUBKTNV-1" source="zAUp7dM-AJPnExlxfuv2-241" target="zAUp7dM-AJPnExlxfuv2-243">
          <mxGeometry relative="1" as="geometry">
            <Array as="points">
              <mxPoint x="1070.75" y="-714" />
            </Array>
          </mxGeometry>
        </mxCell>
        <mxCell id="zAUp7dM-AJPnExlxfuv2-241" value="&lt;span style=&quot;font-size: 8px;&quot;&gt;Get address of function named as main&lt;/span&gt;" style="rounded=1;whiteSpace=wrap;html=1;" vertex="1" parent="WIyWlLk6GJQsqaUBKTNV-1">
          <mxGeometry x="1000.75" y="-789" width="120" height="60" as="geometry" />
        </mxCell>
        <mxCell id="zAUp7dM-AJPnExlxfuv2-242" style="edgeStyle=orthogonalEdgeStyle;rounded=0;orthogonalLoop=1;jettySize=auto;html=1;exitX=0.5;exitY=1;exitDx=0;exitDy=0;" edge="1" parent="WIyWlLk6GJQsqaUBKTNV-1" source="zAUp7dM-AJPnExlxfuv2-243" target="zAUp7dM-AJPnExlxfuv2-247">
          <mxGeometry relative="1" as="geometry" />
        </mxCell>
        <mxCell id="zAUp7dM-AJPnExlxfuv2-243" value="&lt;p&gt;&lt;span style=&quot;font-size: 8px;&quot;&gt;Entry_name&lt;/span&gt;&lt;/p&gt;&lt;p&gt;&lt;span style=&quot;font-size: 8px;&quot;&gt;Entry_addr&lt;/span&gt;&lt;/p&gt;" style="shape=parallelogram;html=1;strokeWidth=1;perimeter=parallelogramPerimeter;whiteSpace=wrap;rounded=1;arcSize=12;size=0.23;" vertex="1" parent="WIyWlLk6GJQsqaUBKTNV-1">
          <mxGeometry x="1154.75" y="-739" width="80" height="50" as="geometry" />
        </mxCell>
        <mxCell id="zAUp7dM-AJPnExlxfuv2-244" style="edgeStyle=orthogonalEdgeStyle;rounded=0;orthogonalLoop=1;jettySize=auto;html=1;entryX=0.5;entryY=0;entryDx=0;entryDy=0;" edge="1" parent="WIyWlLk6GJQsqaUBKTNV-1" source="zAUp7dM-AJPnExlxfuv2-245" target="zAUp7dM-AJPnExlxfuv2-249">
          <mxGeometry relative="1" as="geometry" />
        </mxCell>
        <mxCell id="zAUp7dM-AJPnExlxfuv2-245" value="&lt;span style=&quot;font-size: 8px;&quot;&gt;&lt;b&gt;[void] list_instructions(entry_fn)&lt;/b&gt;&lt;br&gt;Print the instructions of the function&lt;/span&gt;" style="rounded=1;whiteSpace=wrap;html=1;fillColor=#eeeeee;strokeColor=#36393d;" vertex="1" parent="WIyWlLk6GJQsqaUBKTNV-1">
          <mxGeometry x="1126.75" y="-594" width="136" height="60" as="geometry" />
        </mxCell>
        <mxCell id="zAUp7dM-AJPnExlxfuv2-246" style="edgeStyle=orthogonalEdgeStyle;rounded=0;orthogonalLoop=1;jettySize=auto;html=1;entryX=0.5;entryY=0;entryDx=0;entryDy=0;" edge="1" parent="WIyWlLk6GJQsqaUBKTNV-1" source="zAUp7dM-AJPnExlxfuv2-247" target="zAUp7dM-AJPnExlxfuv2-245">
          <mxGeometry relative="1" as="geometry" />
        </mxCell>
        <mxCell id="zAUp7dM-AJPnExlxfuv2-247" value="&lt;p&gt;&lt;span style=&quot;font-size: 8px;&quot;&gt;Entry_fn&lt;/span&gt;&lt;/p&gt;" style="shape=parallelogram;html=1;strokeWidth=1;perimeter=parallelogramPerimeter;whiteSpace=wrap;rounded=1;arcSize=12;size=0.23;" vertex="1" parent="WIyWlLk6GJQsqaUBKTNV-1">
          <mxGeometry x="1154.75" y="-669" width="80" height="50" as="geometry" />
        </mxCell>
        <mxCell id="zAUp7dM-AJPnExlxfuv2-248" style="edgeStyle=orthogonalEdgeStyle;rounded=0;orthogonalLoop=1;jettySize=auto;html=1;" edge="1" parent="WIyWlLk6GJQsqaUBKTNV-1" source="zAUp7dM-AJPnExlxfuv2-249" target="zAUp7dM-AJPnExlxfuv2-251">
          <mxGeometry relative="1" as="geometry" />
        </mxCell>
        <mxCell id="zAUp7dM-AJPnExlxfuv2-249" value="&lt;span style=&quot;font-size: 8px;&quot;&gt;&lt;b&gt;[address] find_main(entry_name)&lt;/b&gt;&lt;br&gt;Search lib find_start_main on entry_fn body; if not find, addr is None&lt;br&gt;&lt;/span&gt;" style="rounded=1;whiteSpace=wrap;html=1;fillColor=#eeeeee;strokeColor=#36393d;" vertex="1" parent="WIyWlLk6GJQsqaUBKTNV-1">
          <mxGeometry x="1124.75" y="-509" width="140" height="60" as="geometry" />
        </mxCell>
        <mxCell id="zAUp7dM-AJPnExlxfuv2-250" style="edgeStyle=orthogonalEdgeStyle;rounded=0;orthogonalLoop=1;jettySize=auto;html=1;" edge="1" parent="WIyWlLk6GJQsqaUBKTNV-1" source="zAUp7dM-AJPnExlxfuv2-251" target="zAUp7dM-AJPnExlxfuv2-255">
          <mxGeometry relative="1" as="geometry" />
        </mxCell>
        <mxCell id="zAUp7dM-AJPnExlxfuv2-251" value="&lt;p&gt;&lt;span style=&quot;font-size: 8px;&quot;&gt;lib_main_addr&lt;/span&gt;&lt;/p&gt;" style="shape=parallelogram;html=1;strokeWidth=1;perimeter=parallelogramPerimeter;whiteSpace=wrap;rounded=1;arcSize=12;size=0.23;" vertex="1" parent="WIyWlLk6GJQsqaUBKTNV-1">
          <mxGeometry x="1154.75" y="-419" width="80" height="50" as="geometry" />
        </mxCell>
        <mxCell id="zAUp7dM-AJPnExlxfuv2-252" style="edgeStyle=orthogonalEdgeStyle;rounded=0;orthogonalLoop=1;jettySize=auto;html=1;entryX=1;entryY=0.5;entryDx=0;entryDy=0;" edge="1" parent="WIyWlLk6GJQsqaUBKTNV-1" source="zAUp7dM-AJPnExlxfuv2-255" target="zAUp7dM-AJPnExlxfuv2-257">
          <mxGeometry relative="1" as="geometry" />
        </mxCell>
        <mxCell id="zAUp7dM-AJPnExlxfuv2-253" value="no" style="edgeLabel;html=1;align=center;verticalAlign=middle;resizable=0;points=[];" vertex="1" connectable="0" parent="zAUp7dM-AJPnExlxfuv2-252">
          <mxGeometry x="-0.0695" y="3" relative="1" as="geometry">
            <mxPoint as="offset" />
          </mxGeometry>
        </mxCell>
        <mxCell id="zAUp7dM-AJPnExlxfuv2-254" style="edgeStyle=orthogonalEdgeStyle;rounded=0;orthogonalLoop=1;jettySize=auto;html=1;" edge="1" parent="WIyWlLk6GJQsqaUBKTNV-1" source="zAUp7dM-AJPnExlxfuv2-255" target="zAUp7dM-AJPnExlxfuv2-262">
          <mxGeometry relative="1" as="geometry" />
        </mxCell>
        <mxCell id="zAUp7dM-AJPnExlxfuv2-255" value="&lt;font style=&quot;font-size: 8px;&quot;&gt;Lib addr found&lt;/font&gt;" style="rhombus;whiteSpace=wrap;html=1;" vertex="1" parent="WIyWlLk6GJQsqaUBKTNV-1">
          <mxGeometry x="1154.75" y="-339" width="80" height="80" as="geometry" />
        </mxCell>
        <mxCell id="zAUp7dM-AJPnExlxfuv2-256" style="edgeStyle=orthogonalEdgeStyle;rounded=0;orthogonalLoop=1;jettySize=auto;html=1;entryX=0.5;entryY=0;entryDx=0;entryDy=0;" edge="1" parent="WIyWlLk6GJQsqaUBKTNV-1" source="zAUp7dM-AJPnExlxfuv2-257" target="zAUp7dM-AJPnExlxfuv2-260">
          <mxGeometry relative="1" as="geometry" />
        </mxCell>
        <mxCell id="zAUp7dM-AJPnExlxfuv2-257" value="&lt;span style=&quot;font-size: 8px;&quot;&gt;&lt;b&gt;[InstructionDB] got_to_address(ref_addr)&lt;/b&gt;&lt;br&gt;Go to instruction at lib_main_addr&lt;br&gt;&lt;/span&gt;" style="rounded=1;whiteSpace=wrap;html=1;fillColor=#eeeeee;strokeColor=#36393d;" vertex="1" parent="WIyWlLk6GJQsqaUBKTNV-1">
          <mxGeometry x="910.75" y="-329" width="170" height="60" as="geometry" />
        </mxCell>
        <mxCell id="zAUp7dM-AJPnExlxfuv2-258" value="&lt;span style=&quot;font-size: 8px;&quot;&gt;&lt;b&gt;[void] list_inst_branch(instructionDB)&lt;br&gt;&lt;/b&gt;List instruction until branch detection&lt;br&gt;&lt;/span&gt;" style="rounded=1;whiteSpace=wrap;html=1;fillColor=#eeeeee;strokeColor=#36393d;" vertex="1" parent="WIyWlLk6GJQsqaUBKTNV-1">
          <mxGeometry x="900.75" y="-159" width="170" height="60" as="geometry" />
        </mxCell>
        <mxCell id="zAUp7dM-AJPnExlxfuv2-259" style="edgeStyle=orthogonalEdgeStyle;rounded=0;orthogonalLoop=1;jettySize=auto;html=1;entryX=0.562;entryY=0.007;entryDx=0;entryDy=0;entryPerimeter=0;" edge="1" parent="WIyWlLk6GJQsqaUBKTNV-1" source="zAUp7dM-AJPnExlxfuv2-260" target="zAUp7dM-AJPnExlxfuv2-258">
          <mxGeometry relative="1" as="geometry" />
        </mxCell>
        <mxCell id="zAUp7dM-AJPnExlxfuv2-260" value="&lt;p&gt;&lt;span style=&quot;font-size: 8px;&quot;&gt;next_inst_addr&lt;/span&gt;&lt;/p&gt;" style="shape=parallelogram;html=1;strokeWidth=1;perimeter=parallelogramPerimeter;whiteSpace=wrap;rounded=1;arcSize=12;size=0.23;" vertex="1" parent="WIyWlLk6GJQsqaUBKTNV-1">
          <mxGeometry x="955.75" y="-239" width="80" height="50" as="geometry" />
        </mxCell>
        <mxCell id="zAUp7dM-AJPnExlxfuv2-261" style="edgeStyle=orthogonalEdgeStyle;rounded=0;orthogonalLoop=1;jettySize=auto;html=1;" edge="1" parent="WIyWlLk6GJQsqaUBKTNV-1" source="zAUp7dM-AJPnExlxfuv2-262" target="zAUp7dM-AJPnExlxfuv2-264">
          <mxGeometry relative="1" as="geometry" />
        </mxCell>
        <mxCell id="zAUp7dM-AJPnExlxfuv2-262" value="&lt;span style=&quot;font-size: 8px;&quot;&gt;&lt;b&gt;[InstructionDB] got_to_address(ref_addr)&lt;/b&gt;&lt;br&gt;Go to instruction at entry_fn&lt;br&gt;&lt;/span&gt;" style="rounded=1;whiteSpace=wrap;html=1;fillColor=#eeeeee;strokeColor=#36393d;" vertex="1" parent="WIyWlLk6GJQsqaUBKTNV-1">
          <mxGeometry x="1110.75" y="-239" width="170" height="60" as="geometry" />
        </mxCell>
        <mxCell id="zAUp7dM-AJPnExlxfuv2-263" value="&lt;span style=&quot;font-size: 8px;&quot;&gt;&lt;b&gt;[void] list_inst_branch(instructionDB)&lt;br&gt;&lt;/b&gt;List instruction until branch detection&lt;br&gt;&lt;/span&gt;" style="rounded=1;whiteSpace=wrap;html=1;fillColor=#eeeeee;strokeColor=#36393d;" vertex="1" parent="WIyWlLk6GJQsqaUBKTNV-1">
          <mxGeometry x="1100.75" y="-89" width="170" height="60" as="geometry" />
        </mxCell>
        <mxCell id="zAUp7dM-AJPnExlxfuv2-264" value="&lt;p&gt;&lt;span style=&quot;font-size: 8px;&quot;&gt;next_inst_addr&lt;/span&gt;&lt;/p&gt;" style="shape=parallelogram;html=1;strokeWidth=1;perimeter=parallelogramPerimeter;whiteSpace=wrap;rounded=1;arcSize=12;size=0.23;" vertex="1" parent="WIyWlLk6GJQsqaUBKTNV-1">
          <mxGeometry x="1155.75" y="-159" width="80" height="50" as="geometry" />
        </mxCell>
        <mxCell id="zAUp7dM-AJPnExlxfuv2-265" style="edgeStyle=orthogonalEdgeStyle;rounded=0;orthogonalLoop=1;jettySize=auto;html=1;entryX=0.559;entryY=-0.007;entryDx=0;entryDy=0;entryPerimeter=0;" edge="1" parent="WIyWlLk6GJQsqaUBKTNV-1" source="zAUp7dM-AJPnExlxfuv2-264" target="zAUp7dM-AJPnExlxfuv2-263">
          <mxGeometry relative="1" as="geometry" />
        </mxCell>
        <mxCell id="zAUp7dM-AJPnExlxfuv2-266" style="edgeStyle=orthogonalEdgeStyle;rounded=0;orthogonalLoop=1;jettySize=auto;html=1;exitX=0;exitY=0.5;exitDx=0;exitDy=0;" edge="1" parent="WIyWlLk6GJQsqaUBKTNV-1" source="zAUp7dM-AJPnExlxfuv2-267">
          <mxGeometry relative="1" as="geometry">
            <mxPoint x="1360.75" y="-58.85714285714266" as="targetPoint" />
          </mxGeometry>
        </mxCell>
        <mxCell id="zAUp7dM-AJPnExlxfuv2-267" value="End" style="rounded=1;whiteSpace=wrap;html=1;fillColor=#ffcc99;strokeColor=#36393d;shadow=0;rotation=0;" vertex="1" parent="WIyWlLk6GJQsqaUBKTNV-1">
          <mxGeometry x="1460.75" y="-79" width="110" height="40" as="geometry" />
        </mxCell>
        <mxCell id="zAUp7dM-AJPnExlxfuv2-268" value="&lt;b&gt;Function : main&lt;/b&gt;" style="strokeWidth=2;html=1;shape=mxgraph.flowchart.annotation_1;align=left;pointerEvents=1;" vertex="1" parent="WIyWlLk6GJQsqaUBKTNV-1">
          <mxGeometry x="860.75" y="-1139" width="50" height="100" as="geometry" />
        </mxCell>
        <mxCell id="zAUp7dM-AJPnExlxfuv2-269" value="START" style="rounded=1;whiteSpace=wrap;html=1;fillColor=#d5e8d4;strokeColor=#82b366;shadow=0;gradientColor=none;rotation=0;" vertex="1" parent="WIyWlLk6GJQsqaUBKTNV-1">
          <mxGeometry x="1045.75" y="30" width="110" height="40" as="geometry" />
        </mxCell>
        <mxCell id="zAUp7dM-AJPnExlxfuv2-270" value="&lt;b&gt;treat_branch(inst)&lt;/b&gt;" style="strokeWidth=2;html=1;shape=mxgraph.flowchart.annotation_1;align=left;pointerEvents=1;" vertex="1" parent="WIyWlLk6GJQsqaUBKTNV-1">
          <mxGeometry x="850.75" y="20" width="50" height="100" as="geometry" />
        </mxCell>
        <mxCell id="zAUp7dM-AJPnExlxfuv2-271" value="&lt;p&gt;&lt;span style=&quot;font-size: 8px;&quot;&gt;(InstructionDB) inst&lt;/span&gt;&lt;/p&gt;" style="shape=parallelogram;html=1;strokeWidth=1;perimeter=parallelogramPerimeter;whiteSpace=wrap;rounded=1;arcSize=12;size=0.23;" vertex="1" parent="WIyWlLk6GJQsqaUBKTNV-1">
          <mxGeometry x="1175.75" y="20" width="105" height="50" as="geometry" />
        </mxCell>
        <mxCell id="zAUp7dM-AJPnExlxfuv2-277" style="edgeStyle=orthogonalEdgeStyle;rounded=0;orthogonalLoop=1;jettySize=auto;html=1;entryX=0.5;entryY=0;entryDx=0;entryDy=0;" edge="1" parent="WIyWlLk6GJQsqaUBKTNV-1" source="zAUp7dM-AJPnExlxfuv2-272" target="zAUp7dM-AJPnExlxfuv2-276">
          <mxGeometry relative="1" as="geometry">
            <Array as="points">
              <mxPoint x="490" y="410" />
              <mxPoint x="490" y="410" />
            </Array>
          </mxGeometry>
        </mxCell>
        <mxCell id="zAUp7dM-AJPnExlxfuv2-278" value="no" style="edgeLabel;html=1;align=center;verticalAlign=middle;resizable=0;points=[];" vertex="1" connectable="0" parent="zAUp7dM-AJPnExlxfuv2-277">
          <mxGeometry x="-0.0663" y="-1" relative="1" as="geometry">
            <mxPoint as="offset" />
          </mxGeometry>
        </mxCell>
        <mxCell id="zAUp7dM-AJPnExlxfuv2-303" style="edgeStyle=orthogonalEdgeStyle;rounded=0;orthogonalLoop=1;jettySize=auto;html=1;entryX=0;entryY=0.5;entryDx=0;entryDy=0;" edge="1" parent="WIyWlLk6GJQsqaUBKTNV-1" source="zAUp7dM-AJPnExlxfuv2-272" target="zAUp7dM-AJPnExlxfuv2-302">
          <mxGeometry relative="1" as="geometry" />
        </mxCell>
        <mxCell id="zAUp7dM-AJPnExlxfuv2-272" value="&lt;font style=&quot;font-size: 8px;&quot;&gt;IF&lt;br&gt;fn_dest is error_fn&lt;br&gt;&lt;/font&gt;" style="rhombus;whiteSpace=wrap;html=1;" vertex="1" parent="WIyWlLk6GJQsqaUBKTNV-1">
          <mxGeometry x="430" y="330" width="120" height="60" as="geometry" />
        </mxCell>
        <mxCell id="zAUp7dM-AJPnExlxfuv2-275" style="edgeStyle=orthogonalEdgeStyle;rounded=0;orthogonalLoop=1;jettySize=auto;html=1;" edge="1" parent="WIyWlLk6GJQsqaUBKTNV-1" source="zAUp7dM-AJPnExlxfuv2-273" target="zAUp7dM-AJPnExlxfuv2-272">
          <mxGeometry relative="1" as="geometry" />
        </mxCell>
        <mxCell id="zAUp7dM-AJPnExlxfuv2-273" value="&lt;p&gt;&lt;span style=&quot;font-size: 8px;&quot;&gt;fn_dest&amp;nbsp; (&lt;/span&gt;&lt;span style=&quot;font-size: 8px; background-color: initial;&quot;&gt;fn at dest_addr)&lt;/span&gt;&lt;/p&gt;" style="shape=parallelogram;html=1;strokeWidth=1;perimeter=parallelogramPerimeter;whiteSpace=wrap;rounded=1;arcSize=12;size=0.23;" vertex="1" parent="WIyWlLk6GJQsqaUBKTNV-1">
          <mxGeometry x="454" y="260" width="72" height="50" as="geometry" />
        </mxCell>
        <mxCell id="zAUp7dM-AJPnExlxfuv2-288" style="edgeStyle=orthogonalEdgeStyle;rounded=0;orthogonalLoop=1;jettySize=auto;html=1;exitX=1;exitY=0.5;exitDx=0;exitDy=0;entryX=0;entryY=0.5;entryDx=0;entryDy=0;" edge="1" parent="WIyWlLk6GJQsqaUBKTNV-1" source="zAUp7dM-AJPnExlxfuv2-276" target="zAUp7dM-AJPnExlxfuv2-279">
          <mxGeometry relative="1" as="geometry">
            <Array as="points">
              <mxPoint x="578" y="460" />
              <mxPoint x="578" y="410" />
            </Array>
          </mxGeometry>
        </mxCell>
        <mxCell id="zAUp7dM-AJPnExlxfuv2-289" style="edgeStyle=orthogonalEdgeStyle;rounded=0;orthogonalLoop=1;jettySize=auto;html=1;entryX=0;entryY=0.5;entryDx=0;entryDy=0;" edge="1" parent="WIyWlLk6GJQsqaUBKTNV-1" source="zAUp7dM-AJPnExlxfuv2-276" target="zAUp7dM-AJPnExlxfuv2-284">
          <mxGeometry relative="1" as="geometry" />
        </mxCell>
        <mxCell id="zAUp7dM-AJPnExlxfuv2-290" style="edgeStyle=orthogonalEdgeStyle;rounded=0;orthogonalLoop=1;jettySize=auto;html=1;entryX=0;entryY=0.5;entryDx=0;entryDy=0;" edge="1" parent="WIyWlLk6GJQsqaUBKTNV-1" source="zAUp7dM-AJPnExlxfuv2-276" target="zAUp7dM-AJPnExlxfuv2-285">
          <mxGeometry relative="1" as="geometry" />
        </mxCell>
        <mxCell id="zAUp7dM-AJPnExlxfuv2-291" style="edgeStyle=orthogonalEdgeStyle;rounded=0;orthogonalLoop=1;jettySize=auto;html=1;entryX=0;entryY=0.5;entryDx=0;entryDy=0;" edge="1" parent="WIyWlLk6GJQsqaUBKTNV-1" source="zAUp7dM-AJPnExlxfuv2-276" target="zAUp7dM-AJPnExlxfuv2-286">
          <mxGeometry relative="1" as="geometry" />
        </mxCell>
        <mxCell id="zAUp7dM-AJPnExlxfuv2-292" style="edgeStyle=orthogonalEdgeStyle;rounded=0;orthogonalLoop=1;jettySize=auto;html=1;entryX=0;entryY=0.5;entryDx=0;entryDy=0;" edge="1" parent="WIyWlLk6GJQsqaUBKTNV-1" source="zAUp7dM-AJPnExlxfuv2-276" target="zAUp7dM-AJPnExlxfuv2-287">
          <mxGeometry relative="1" as="geometry" />
        </mxCell>
        <mxCell id="zAUp7dM-AJPnExlxfuv2-301" style="edgeStyle=orthogonalEdgeStyle;rounded=0;orthogonalLoop=1;jettySize=auto;html=1;entryX=0;entryY=0.5;entryDx=0;entryDy=0;" edge="1" parent="WIyWlLk6GJQsqaUBKTNV-1" source="zAUp7dM-AJPnExlxfuv2-276" target="zAUp7dM-AJPnExlxfuv2-300">
          <mxGeometry relative="1" as="geometry" />
        </mxCell>
        <mxCell id="zAUp7dM-AJPnExlxfuv2-276" value="&lt;font style=&quot;font-size: 8px;&quot;&gt;inst_type&lt;br&gt;&lt;/font&gt;" style="rhombus;whiteSpace=wrap;html=1;" vertex="1" parent="WIyWlLk6GJQsqaUBKTNV-1">
          <mxGeometry x="430" y="430" width="120" height="60" as="geometry" />
        </mxCell>
        <mxCell id="zAUp7dM-AJPnExlxfuv2-293" style="edgeStyle=orthogonalEdgeStyle;rounded=0;orthogonalLoop=1;jettySize=auto;html=1;" edge="1" parent="WIyWlLk6GJQsqaUBKTNV-1" source="zAUp7dM-AJPnExlxfuv2-279">
          <mxGeometry relative="1" as="geometry">
            <mxPoint x="820" y="410" as="targetPoint" />
          </mxGeometry>
        </mxCell>
        <mxCell id="zAUp7dM-AJPnExlxfuv2-279" value="&lt;span style=&quot;font-size: 8px;&quot;&gt;&lt;b&gt;[Ghidra Addr] set_conditional(inst)&lt;/b&gt;&lt;br&gt;&lt;/span&gt;" style="rounded=1;whiteSpace=wrap;html=1;fillColor=#eeeeee;strokeColor=#36393d;" vertex="1" parent="WIyWlLk6GJQsqaUBKTNV-1">
          <mxGeometry x="606.5" y="390" width="190.5" height="40" as="geometry" />
        </mxCell>
        <mxCell id="zAUp7dM-AJPnExlxfuv2-281" value="&lt;span style=&quot;font-size: 8px;&quot;&gt;&lt;b&gt;[void] list_inst_branch(instructionDB)&lt;br&gt;&lt;/b&gt;List instruction until branch detection&lt;br&gt;&lt;/span&gt;" style="rounded=1;whiteSpace=wrap;html=1;fillColor=#eeeeee;strokeColor=#36393d;" vertex="1" parent="WIyWlLk6GJQsqaUBKTNV-1">
          <mxGeometry x="617" y="1030" width="170" height="60" as="geometry" />
        </mxCell>
        <mxCell id="zAUp7dM-AJPnExlxfuv2-294" style="edgeStyle=orthogonalEdgeStyle;rounded=0;orthogonalLoop=1;jettySize=auto;html=1;" edge="1" parent="WIyWlLk6GJQsqaUBKTNV-1" source="zAUp7dM-AJPnExlxfuv2-284">
          <mxGeometry relative="1" as="geometry">
            <mxPoint x="820" y="460" as="targetPoint" />
          </mxGeometry>
        </mxCell>
        <mxCell id="zAUp7dM-AJPnExlxfuv2-284" value="&lt;span style=&quot;font-size: 8px;&quot;&gt;&lt;b&gt;[Ghidra Addr] set_comp_call_terminator(inst)&lt;/b&gt;&lt;br&gt;&lt;/span&gt;" style="rounded=1;whiteSpace=wrap;html=1;fillColor=#eeeeee;strokeColor=#36393d;" vertex="1" parent="WIyWlLk6GJQsqaUBKTNV-1">
          <mxGeometry x="606.5" y="440" width="193.5" height="40" as="geometry" />
        </mxCell>
        <mxCell id="zAUp7dM-AJPnExlxfuv2-295" style="edgeStyle=orthogonalEdgeStyle;rounded=0;orthogonalLoop=1;jettySize=auto;html=1;" edge="1" parent="WIyWlLk6GJQsqaUBKTNV-1" source="zAUp7dM-AJPnExlxfuv2-285">
          <mxGeometry relative="1" as="geometry">
            <mxPoint x="820" y="510" as="targetPoint" />
          </mxGeometry>
        </mxCell>
        <mxCell id="zAUp7dM-AJPnExlxfuv2-285" value="&lt;span style=&quot;font-size: 8px;&quot;&gt;&lt;b&gt;[Ghidra Addr] set_call_terminator(inst)&lt;/b&gt;&lt;br&gt;&lt;/span&gt;" style="rounded=1;whiteSpace=wrap;html=1;fillColor=#eeeeee;strokeColor=#36393d;" vertex="1" parent="WIyWlLk6GJQsqaUBKTNV-1">
          <mxGeometry x="606.5" y="490" width="190.5" height="40" as="geometry" />
        </mxCell>
        <mxCell id="zAUp7dM-AJPnExlxfuv2-296" style="edgeStyle=orthogonalEdgeStyle;rounded=0;orthogonalLoop=1;jettySize=auto;html=1;" edge="1" parent="WIyWlLk6GJQsqaUBKTNV-1" source="zAUp7dM-AJPnExlxfuv2-286">
          <mxGeometry relative="1" as="geometry">
            <mxPoint x="820" y="560" as="targetPoint" />
          </mxGeometry>
        </mxCell>
        <mxCell id="zAUp7dM-AJPnExlxfuv2-286" value="&lt;span style=&quot;font-size: 8px;&quot;&gt;&lt;b&gt;[Ghidra Addr] set_computed(inst)&lt;/b&gt;&lt;br&gt;&lt;/span&gt;" style="rounded=1;whiteSpace=wrap;html=1;fillColor=#eeeeee;strokeColor=#36393d;" vertex="1" parent="WIyWlLk6GJQsqaUBKTNV-1">
          <mxGeometry x="606.5" y="540" width="190.5" height="40" as="geometry" />
        </mxCell>
        <mxCell id="zAUp7dM-AJPnExlxfuv2-299" style="edgeStyle=orthogonalEdgeStyle;rounded=0;orthogonalLoop=1;jettySize=auto;html=1;exitX=1;exitY=0.5;exitDx=0;exitDy=0;" edge="1" parent="WIyWlLk6GJQsqaUBKTNV-1" source="zAUp7dM-AJPnExlxfuv2-287">
          <mxGeometry relative="1" as="geometry">
            <mxPoint x="820" y="604.8965517241381" as="targetPoint" />
          </mxGeometry>
        </mxCell>
        <mxCell id="zAUp7dM-AJPnExlxfuv2-287" value="&lt;span style=&quot;font-size: 8px;&quot;&gt;&lt;b&gt;[Ghidra Addr] set_unconditional&lt;/b&gt;&lt;br&gt;&lt;/span&gt;" style="rounded=1;whiteSpace=wrap;html=1;fillColor=#eeeeee;strokeColor=#36393d;" vertex="1" parent="WIyWlLk6GJQsqaUBKTNV-1">
          <mxGeometry x="606.5" y="585" width="193.5" height="40" as="geometry" />
        </mxCell>
        <mxCell id="zAUp7dM-AJPnExlxfuv2-300" value="&lt;span style=&quot;font-size: 8px;&quot;&gt;&lt;b&gt;exit; type not handled&lt;/b&gt;&lt;br&gt;&lt;/span&gt;" style="rounded=1;whiteSpace=wrap;html=1;fillColor=#ffe6cc;strokeColor=#d79b00;" vertex="1" parent="WIyWlLk6GJQsqaUBKTNV-1">
          <mxGeometry x="606.5" y="630" width="153.5" height="30" as="geometry" />
        </mxCell>
        <mxCell id="zAUp7dM-AJPnExlxfuv2-302" value="&lt;span style=&quot;font-size: 8px;&quot;&gt;&lt;b&gt;[Ghidra Addr] handle_error&lt;/b&gt;&lt;br&gt;&lt;/span&gt;" style="rounded=1;whiteSpace=wrap;html=1;fillColor=#eeeeee;strokeColor=#36393d;" vertex="1" parent="WIyWlLk6GJQsqaUBKTNV-1">
          <mxGeometry x="608" y="340" width="190.5" height="40" as="geometry" />
        </mxCell>
      </root>
    </mxGraphModel>
  </diagram>
</mxfile>
